<?xml version="1.0" encoding="utf-8"?>
<!-- Generator: Adobe Illustrator 26.0.0, SVG Export Plug-In . SVG Version: 6.00 Build 0)  -->
<svg version="1.1" id="Layer_1" xmlns="http://www.w3.org/2000/svg" xmlns:xlink="http://www.w3.org/1999/xlink" x="0px" y="0px"
	 viewBox="0 0 300 300" style="enable-background:new 0 0 300 300;" xml:space="preserve">
<style type="text/css">
	.st0{stroke:#000000;stroke-miterlimit:10;}
	.st1{stroke:#000000;stroke-width:24;stroke-linecap:round;stroke-miterlimit:10;}
</style>
<path class="st0" d="M292.7,89.2H7.9V61.3c0-7.5,6-13.5,13.5-13.5h257.8c7.5,0,13.5,6,13.5,13.5V89.2z"/>
<polyline class="st1" points="208.2,16.4 208.2,30.3 208.2,49.9 "/>
<path class="st0" d="M7.9,105.8v161.4c0,14.6,11.9,26.5,26.5,26.5h231.9c14.6,0,26.5-11.9,26.5-26.5V105.8H7.9z M121.3,211.7
	c0,9.6-7.8,17.4-17.4,17.4H47.8c-9.6,0-17.4-7.8-17.4-17.4v-56.1c0-9.6,7.8-17.4,17.4-17.4h56.1c9.6,0,17.4,7.8,17.4,17.4V211.7z"/>
<polyline class="st1" points="91.9,16.4 91.9,30.3 91.9,49.9 "/>
</svg>
