<?xml version="1.0" encoding="utf-8"?>
<!-- Generator: Adobe Illustrator 26.0.0, SVG Export Plug-In . SVG Version: 6.00 Build 0)  -->
<svg version="1.1" xmlns="http://www.w3.org/2000/svg" xmlns:xlink="http://www.w3.org/1999/xlink" x="0px" y="0px"
	 viewBox="0 0 300 300" style="enable-background:new 0 0 300 300;" xml:space="preserve">
<style type="text/css">
	.st0{display:none;}
	.st1{display:inline;fill:#DF0639;stroke:#000000;stroke-miterlimit:10;}
	.st2{stroke:#000000;stroke-miterlimit:10;}
</style>
<g id="Layer_1" class="st0">
	<ellipse class="st1" cx="150.2" cy="160.6" rx="142.5" ry="154.6"/>
	<path class="st1" d="M150.2,5.9"/>
</g>
<g id="Layer_2">
	<path class="st2" d="M261.5,65.4c-5.3-7.7-12.9-17-23.3-26.3c-8.6-7.6-17-13.3-24.1-17.4C206,17.1,194.6,11.6,180.2,8
		c-12.3-3.1-23.1-4-31.6-4.1C140.2,4,129.3,4.9,117,8c-14.4,3.6-25.8,9.1-33.9,13.7C76,25.9,67.6,31.5,59,39.1
		c-10.4,9.2-18,18.6-23.3,26.3c-4.8,8.3-16.4,31.1-13,61c2.1,18.1,8.8,31.6,13.6,39.5c9.2,13.6,18.3,27.1,27.5,40.7
		c18.7,20.7,37.4,41.4,56.1,62.1c9.6,9.8,19.1,19.5,28.7,29.3c9.6-9.8,19.1-19.5,28.7-29.3c18.7-20.7,37.4-41.4,56.1-62.1
		c9.2-13.6,18.3-27.1,27.5-40.7c4.8-7.9,11.5-21.5,13.6-39.5C277.8,96.5,266.2,73.7,261.5,65.4z M148.6,177.1
		c-30.8-0.4-55.6-25.5-55.6-56.4s24.8-56,55.6-56.4c30.8,0.4,55.6,25.5,55.6,56.4S179.4,176.7,148.6,177.1z"/>
</g>
</svg>
