<?xml version="1.0" encoding="utf-8"?>
<!-- Generator: Adobe Illustrator 26.0.0, SVG Export Plug-In . SVG Version: 6.00 Build 0)  -->
<svg version="1.1" id="Layer_1" xmlns="http://www.w3.org/2000/svg" xmlns:xlink="http://www.w3.org/1999/xlink" x="0px" y="0px"
	 viewBox="0 0 850.4 850.4" style="enable-background:new 0 0 850.4 850.4;" xml:space="preserve">
<style type="text/css">
	.st0{fill:#B7B6B6;}
	.st1{fill:#1D1D1B;}
	.st2{fill:#FFFFFF;}
	.st3{fill:none;stroke:#424241;stroke-width:2;stroke-miterlimit:10;}
	.st4{fill:#FFFFFF;stroke:#424241;stroke-width:2;stroke-miterlimit:10;}
</style>
<g>
	<g id="Layer_1_00000176043567806835838390000006329612432252763068_">
	</g>
	<g id="Layer_2_00000163040190688997808170000000854570209107564186_">
		
			<rect x="337.3" y="-187.2" transform="matrix(9.199625e-02 -0.9958 0.9958 9.199625e-02 165.4761 628.4435)" class="st0" width="180" height="821.3"/>
		<g>
			
				<rect x="98.7" y="353.1" transform="matrix(0.9971 -7.590117e-02 7.590117e-02 0.9971 -32.3991 33.624)" class="st0" width="654.9" height="180"/>
			<g>
				<path class="st0" d="M141.9,517.7c-1.3-17-2.8-36.4-4.1-53.5c0.9-13.9-7.1-45.7,1-55.1c0.8,0.1,11.7-1.5,11.8,0
					c9.6,12.3,19.9,28.1,29.5,39.3c4.5-1.5,3.1-8.6,5.9-11.6c8.5-10.6,10.6-30.1,23.8-35.6c4.6-0.7,9.5,8.7,12,1.6
					c3.7,0.5,13.2,106.8,7.1,104.3l-6.7-87.4c-0.6-3.6-1.4-12.8-5.4-3.8c-1.3,10.2,10.8,93.4,6.7,99.1
					c-12.2,5.2-12.6-11.4-11.6-19.5c0,0-4-52.8-4-52.8c-3.3,2,2,11.2-4.5,7.8c-20.8,26.9-19.5,28.5-43.2,2.5c-1.9,0-1.4,7.7-1.9,8.7
					c-1.4,4.9,9.1,56.6-1.2,53.3c-0.9-21.5-2.6-42.4-4.6-63.8l-1.2,0.1c-0.8,16.8-1.2,35,0.5,51.9c-0.3,2.4,1,6.6,2.2,8.3
					C157.6,520.2,146.2,527.2,141.9,517.7z M149.6,428.6c0.6,3.5-1.1,6.7,4,6.6C153.4,432.2,152.1,430,149.6,428.6z M165.8,422
					c4.8,2.7,10,8.8,11.5,14.6C172.6,435.1,167.8,426.3,165.8,422z M205.8,424.9c0.4,0.7-0.2,7.9,1.3,7.7
					C211.9,433.6,209.4,424.4,205.8,424.9z"/>
				<path class="st0" d="M306.9,493.4c-2.3,0.1-5.4-0.5-7.6-0.3c-2,0.3-3.6,1.7-5.9,1.3c-2.2-0.8-26.1-0.7-26,3.8
					c-2,12.5-17,23.6-22.9,7.4c3.1-21.1,9.1-42,12.8-63.1c5.1-13.4,3.3-36.8,15.4-45.2c0,0,13.3-1,13.3-1l3.6,3.1
					c4.1,19,11.9,36.9,17.3,55.5c2.4,10.9,6.2,24.9,13.2,34.1c1,0.9,2.9,3.6,4.3,2.8c-6.7-31.5-26.7-60.2-29.9-92.9
					c13,29.4,25.1,63.5,35.3,95.3C325.4,517.6,314.5,510.3,306.9,493.4z M263.7,490c-1.8,0.1-2,1.6-1.9,3
					C263.5,493.3,266.2,491.3,263.7,490z M260.9,475l0.3,3.5c13.2-0.9,25-3.3,38.4-3.9c3.4-5.6-4-11.4-6.3-16.3
					c-2.6-4.5-1.2-14.8-5.5-17.3c-0.2-2.7-0.8-6.5-3.2-8.2c-8.5,7-3.5,33.8-13.8,38.9c-7.1,1.4,7.7-55.1,10.6-54.8
					c-4.2-19.9-8.9,18.8-10.6,23.7C267.9,451.8,269.9,466.8,260.9,475z"/>
				<path class="st0" d="M343.4,500c-1.6-17.7-2.8-35.8-3.6-53.3c2.1-7.6-9.6-57.3,2.4-51.9c11.5-7.3,7.2,6.1,7.8,12.8
					c0.1,12.2,4.2,27.6,0.2,39.2c5.7,8.3,10.5-7.6,14-11.4c12.3-9.9,28.3-50.4,43-47.4c19.7,7.9-6.2,26.7-11.1,37.8
					c-2.6,6.2,4.6,14.3,7.4,19.9c1.5,0.6,21.6,37,22.4,39.4c1.4,3.9-3.3,5.1-3.8,8.6c-1,12.7-15.1,7-16.1-2.6
					c-3.8-0.4-7.9-8.4-7.4-13l-2,0.2c-1.3-3.7-4.4-9.5-6.1-13c-3.2-0.6-6.7-8-8.4-10.7c0-1.1,1.4-1.7,0.6-3l-1.4,1.8l-2.7-2.3
					c-4.1,6.3-13.9,13-16.7,19.7c0,0,1.7,22.7,1.7,22.7C363.3,502.9,347.5,512.1,343.4,500z M353.2,486.7c0.2,2.3,0.5,8.2,4.1,7.2
					C361.3,482.9,351.7,462.4,353.2,486.7z M358.5,465c-0.9,0.4-2,1-2.4,1.9C357.4,467.4,358.7,466.7,358.5,465z M352.9,403.1
					c0.9-23.7,11.3,43.9,2.6,29.7C354.7,431.4,353.2,405.3,352.9,403.1z M377.2,440c-1.7,0.2-1.3,2.6-1.3,3.8
					C378.5,444.3,379.9,440.5,377.2,440z M414.5,481.9c1.6,1.6,3.3,3.3,5.8,3.1c-6.2-20.9-24.4-38.5-31.2-59.3
					c-4.4-0.2-2.1,5.7,1,6.7c0,0,0.8,10.1,0.8,10.1C400.8,453.3,406.2,469.6,414.5,481.9z"/>
				<path class="st0" d="M439.4,491.1c-2.3-33.4-5.7-69.1-6.3-102.4c-1-9.4,48.1-9.7,57.4-12c3.9,0,9.7-1.7,12.8,0.8
					c3,2.6,1,6.7,2.8,9.9c2.7,3.8-3.7,6.7-6.6,7.2c0,0-43.4,5-43.4,5c-3.3,5.5,0.5,13.9-1,20.3c-7.7,7.4-2.9-27-8.8-27.2
					c-0.8,11.8,0.4,23.5,1.1,35c1.2,2,8.2,1,10-0.3c0,0,25.9-2,25.9-2c15.1,0.2,10,3.5,15.4,13.2c-6.1,11.8-28.6,6.3-39.4,10.4
					c-2,2.9-0.3,21.4,2.6,23.7c14.5,2.6,33.3-2.8,46.6,2.2c-7.8,0-48.2,5.3-54.9,2.5c-0.7-3.3,0.2-25.7-4.9-20.6
					c0.3,1.9,0.8,17.1,2.2,18.3c0,3.1-2,6.1,2.3,7.3c11.6,2.2,60-13.2,58.2,4c0.6,6.8-6.6,8.4-11.7,9.5
					C489.4,494.1,443.2,507.5,439.4,491.1z M451.6,441.9c-0.9,0.1-1.4,0.5-1.6,1.2l1.7-0.1L451.6,441.9z"/>
				<path class="st0" d="M526.9,483.2c-1.3-16.6-2.4-33.2-3.3-49.8c1.4-15.7-7.6-41.5-0.4-54.3c31.4-5.1,73-18,75.5,28
					c2.7-7.2-2.1-14.6-2.5-21.8c11.5,8.4,9,29.6,1.5,40.4c-7.7,5.7-12.2,15.5-2.7,22c-0.3,2.2,20.7,28.1,9.1,25.1
					c1.1,7.4,1.4,13.6-8.5,12.6c-4.1-0.3-4.6-4.8-6.4-7.6c-6.7-4.9-11.8-13.5-16.9-21.1c-7.9-14.9-10.7-13.6-26.4-11.9
					c-2.3,0.1,1.3,30.5,1.1,31.9C548.3,489.2,529.4,499.7,526.9,483.2z M536.9,470.3c-0.9,3.8,3.2,12.7,4.6,4.5
					c-0.3-2.5-1.1-20.9-2.6-22.6C533.9,454.1,537.5,465.5,536.9,470.3z M535,424.7c1.2,4.8,7.8,0.8,11,0.8
					c16,1.4,40.4-2.7,38.8-23.5c-1.4-4.5-2.8,1.9-3.2,3c-7.7-16-25.4-11.8-40.4-10.4c-2.7,1.2,0.1,18.9-0.1,21.1
					c0.3,0.8,1.3,3.7,1.1,4.5C539.2,420.3,534.4,420,535,424.7z M538.8,440.4c-0.1,2.8,2.7,0.9,3.5-0.3
					C543,437.6,538.1,438.1,538.8,440.4z M546.7,420.4c3.6-2,9.3-1.4,13.3-2.2l0.2,2.4C556.1,420.4,550.5,421.8,546.7,420.4z
					 M562.6,437.2c0.2,1.7,1.2,4.3,3.4,4C565.8,438.9,565.4,436.9,562.6,437.2z M570.6,448c-0.8-0.1-0.7,1.9,0.1,1.7
					C571.5,449.8,571.4,447.9,570.6,448z M578,434.4c7.9,11.2,10.7,32.4,25.6,37.2c-4.4-15-18.8-25-21.9-40.1
					C580.6,431.7,577.7,432.7,578,434.4z"/>
				<path class="st0" d="M635.8,476.9c-6.5-4-25.6-23.7-6.6-22.5c3.8,4.7,8.1,11,14.4,11.9c17.8,5.6,49.6-9.8,32-30.3l-0.7,1.7
					c-12.8-11.9-36.6-1.5-47.7-17.5c-28.5-42.7,31.5-73.8,61.1-41.6c0.3,6.5-1.8,17.9-10.3,17.6c-6.7-2.3-9.7-10.2-17-12
					c-13.9-4.1-26.9,5.8-19.8,20.6c-5.7,0.5-6.3-8.2-6.8-12.1c-5.8,6.1,3.9,18.5,11.6,19.7c14.6,1.1,28.7,1.5,40.4,10.9
					c-5.3-8.5-16-9.5-23.9-14.2C730.6,413.9,695.2,507.8,635.8,476.9z M624.3,448.2c18-2.6,14.8,15.4,39.5,10.5
					c4.4,1.1,0.1,4.5-2.7,4.5C645.6,467.8,636.2,454.5,624.3,448.2z M634.9,388.4c-0.8-0.1-0.7,1.9,0.1,1.7
					C635.9,390.1,635.7,388.2,634.9,388.4z M681.6,381.4c-0.2-0.1-0.3,0.1-0.3,0.5C681.4,382.9,682.5,381.8,681.6,381.4z
					 M688.5,428.2l5.2,12.2c-0.5-5.2-0.4-9.9-5.2-13L688.5,428.2z"/>
			</g>
		</g>
		<g>
			
				<rect x="336.8" y="348.2" transform="matrix(9.199625e-02 -0.9958 0.9958 9.199625e-02 -278.2792 1032.0377)" class="st0" width="180" height="640.7"/>
			<g>
				<path class="st0" d="M143.4,693.6c1.6-17,3.4-36.3,5-53.4c3.2-13.5,0.6-46.3,10.2-54.1c0.8,0.2,11.8,0.5,11.7,1.9
					c7.4,13.7,14.9,31,22.5,43.6c4.7-0.7,4.5-7.9,7.7-10.4c10.2-9,15.5-27.9,29.4-31.1c4.6,0.1,7.9,10.2,11.5,3.6
					c3.5,1.1-4.8,107.6-10.5,104l8.1-87.3c-0.3,0.1,0.5-8.7-0.7-7.8c-7.3-3.9-9.9,86.2-11.7,87.7c7.4,13.6-12.2,22.2-12.3,5
					c1.5-7.6,6.2-55.8,6.8-64.6c-3.6,1.4,0.1,11.4-5.7,7c-25,23-24.1,24.9-43-4.8c-1.9-0.3-2.7,7.4-3.3,8.3
					c-2.2,4.6-0.4,57.4-10.1,52.3c2.7-21.3,4.5-42.2,6.1-63.7l-1.2-0.1c-3.7,16.5-7,34.3-8.2,51.2c-0.7,2.3-0.1,6.6,0.7,8.6
					C158.5,698.8,146,703.6,143.4,693.6z M165.9,607c0,3.5-2.2,6.5,2.8,7.1C169,611.2,168,608.8,165.9,607z M182.9,603.3
					c4.2,3.4,8.4,10.4,8.9,16.3C187.5,617.3,184.2,607.8,182.9,603.3z M221.9,612.8c0.2,0.7-1.5,7.7,0,7.8
					C226.5,622.4,225.5,612.9,221.9,612.8z"/>
				<path class="st0" d="M310.1,697.3c-2.3-0.3-5.2-1.4-7.5-1.5c-2.1,0-3.9,1.1-6,0.3c-2.1-1.2-25.7-5.1-26.3-0.6
					c-4,12-20.7,20.4-23.8,3.5c6.6-20.3,16-39.9,23.1-60.1c7.1-12.2,9.6-36.1,22.8-42c0,0,13.3,1.2,13.3,1.2l3,3.7
					c0.9,19.4,5.5,38.4,7.8,57.6c0.6,11.1,2,25.6,7.3,35.8c0.8,1,2.3,4.1,3.8,3.5c-1.3-32.2-16.3-63.9-13.9-96.6
					c7.9,31.1,14.1,66.8,18.9,99.8C324.3,724.2,314.5,715.2,310.1,697.3z M268.1,686.7c-1.8-0.2-2.3,1.3-2.4,2.7
					C267.3,689.9,270.3,688.4,268.1,686.7z M267.8,671.4l-0.3,3.5c13.2,1.3,25.3,0.9,38.5,2.6c4.3-4.9-2-11.9-3.5-17.1
					c-1.8-4.9,1.3-14.8-2.6-18c0.2-2.7,0.3-6.5-1.7-8.6c-9.6,5.5-9.1,32.8-20.1,36.1c-7.3,0.3,16.8-53.1,19.5-52.2
					c-0.8-20.3-11.9,17.1-14.4,21.6C278.6,649.7,278.1,664.9,267.8,671.4z"/>
				<path class="st0" d="M345.2,707.1c1.5-16.6,3.2-33.2,5.1-49.6c3.9-14.7-0.4-43.1,8.7-53.6c31.8,0.2,75-5.5,69.7,40.3
					c3.8-6.6,0.4-14.8,1.2-21.9c9.9,10.3,3.9,30.7-5.3,40.1c-8.6,4.3-14.6,13.2-6.3,21.3c-0.6,2.2,15.7,31.1,4.8,26.3
					c-0.2,7.5-0.9,13.6-10.5,11c-4-0.9-3.8-5.5-5.1-8.6c-5.7-6-9.3-15.3-13.1-23.6c-5.3-16.1-8.3-15.2-24.1-16.2
					c-2.3-0.3-3.9,30.3-4.2,31.6C365.2,716.5,344.9,723.8,345.2,707.1z M357.2,696c-1.6,3.6,1.1,13,3.8,5.2
					c0.1-2.5,2.4-20.8,1.2-22.7C356.9,679.6,358.6,691.4,357.2,696z M363,650.7c0.4,4.9,7.5,2.1,10.7,2.7c15.5,4,40.3,4.1,42.1-16.7
					c-0.6-4.6-3,1.4-3.6,2.5c-4.9-17.1-23.1-15.9-38.1-17c-2.9,0.7-3.1,18.7-3.6,20.8c0.2,0.8,0.7,3.8,0.3,4.6
					C367.8,647.1,363.1,646,363,650.7z M364,666.9c-0.6,2.7,2.5,1.3,3.5,0.3C368.7,664.8,363.8,664.5,364,666.9z M375.1,648.5
					c3.9-1.4,9.5,0.1,13.5,0l-0.2,2.4C384.5,650.1,378.7,650.5,375.1,648.5z M388.1,667.7c-0.1,1.7,0.5,4.4,2.7,4.5
					C390.9,669.9,390.9,667.9,388.1,667.7z M394.1,679.7c-0.8-0.2-1,1.7-0.2,1.7C394.7,681.6,394.9,679.7,394.1,679.7z M403.7,667.5
					c5.9,12.4,5.1,33.8,19,41c-1.8-15.6-14.4-27.8-14.9-43.2C406.7,665.3,403.7,665.8,403.7,667.5z"/>
				<path class="st0" d="M440,718.6c1.4-17.7,3.3-35.8,5.4-53.2c3.3-7.1,0.1-58.1,11-50.8c12.6-5.2,6.1,7.2,5.5,13.9
					c-2,12.1-0.5,27.9-6.3,38.7c4.2,9.1,11.6-5.7,15.7-8.9c13.8-7.7,36.3-45,50.3-39.5c18.1,11.1-10.5,25.3-17.2,35.4
					c-3.6,5.7,2.2,14.8,3.9,20.8c1.4,0.8,15.1,40.1,15.5,42.6c0.7,4.1-4.1,4.4-5.1,7.8c-3.1,12.3-16,4.4-15.4-5.3
					c-3.7-1.1-6.4-9.6-5.1-14l-2-0.2c-0.6-3.8-2.8-10.1-3.8-13.9c-3-1.1-5.3-9-6.5-11.9c0.2-1.1,1.7-1.4,1.1-2.8l-1.7,1.5l-2.3-2.8
					c-5.1,5.5-15.9,10.5-19.8,16.7c0,0-2.1,22.6-2.1,22.6C459.2,724.9,442.1,731.3,440,718.6z M452,707.2c-0.2,2.3-0.9,8.2,2.8,7.7
					C460.6,704.8,454.5,683,452,707.2z M460.8,686.7c-0.9,0.2-2.1,0.7-2.7,1.5C459.3,688.9,460.7,688.4,460.8,686.7z M465.6,624.7
					c4.9-23.2,3.8,45.2-2.4,29.7C462.7,652.9,465.6,627,465.6,624.7z M483.4,665.1c-1.7-0.1-1.8,2.4-1.9,3.6
					C484,669.6,486,666.2,483.4,665.1z M513.2,712.7c1.3,1.8,2.7,3.8,5.2,4c-2.6-21.6-17.6-42.1-20.8-63.7c-4.3-1-3,5.2-0.1,6.7
					c0,0-0.9,10.1-0.9,10.1C504.4,682.2,507.1,699.2,513.2,712.7z"/>
				<path class="st0" d="M536.1,725.9c3.4-33.3,5.9-69,10.9-102c0.4-9.4,49.1-1.6,58.6-2.2c3.9,0.7,9.8-0.1,12.5,3
					c2.7,3.2-0.5,7.5,1.5,11c0.5,3.9-5.2,5.1-8.1,5.2c0,0-43.6-2.3-43.6-2.3c-4.2,4.8-1.8,13.8-4.4,19.9c-8.9,5.6,1.8-26.7-4.1-28.3
					c-2.8,11.5-3.5,23.3-4.8,34.7c0.9,2.2,7.9,2.3,9.9,1.3c0,0,25.9,2.4,25.9,2.4c14.7,2.8,9.3,5.1,12.9,15.6
					c-7.9,10.6-29.3,1.5-40.6,3.7c-2.5,2.5-3.9,21.1-1.3,23.8c13.9,5,33.3,2.8,45.6,9.9c-7.7-1.3-48.4-2.8-54.6-6.7
					c-0.1-3.3,4.5-25.4-1.4-21.1c-0.1,2-2.1,17-0.9,18.4c-0.6,3-3,5.6,1,7.6c11.1,4.1,61.3-3,56.7,13.7c-0.6,6.8-8,7.1-13.1,7.4
					C585,737.3,537.1,742.8,536.1,725.9z M556.5,679.5c-0.9-0.1-1.5,0.2-1.8,0.9l1.7,0.2L556.5,679.5z"/>
				<path class="st0" d="M666.8,642.6c-5.1-0.6-0.9,6.8-4.9,7.8c-8.5-5.9-35-4-27.5-20.4c0.8-1.1,2.4-1.4,4.2-1.2
					c0.7,0.7,3.1,2.2,4,2.1c20.2,0.2,39.6,0.2,59.7,2.1c8.2-1.6,14,8.5,9.2,15c-5.4,3.8-12.9,0.4-19.4,2.4
					c-11.9-5.5-10.8,74.4-15.6,87.5c-2.2,9.7-15.5,11.4-18.6,1.7C657.9,739.5,666.8,642.6,666.8,642.6z M680,645.2c-0.1,1,0,3,1.4,3
					l0.4-4.7C680.7,643.5,680.1,644,680,645.2z M681,652.9c-0.6,0.4-1.9,1.6-1.9,2.4c0,0-6.2,67-6.2,67c4.4-14.3,4.2-28.8,6.3-43.6
					C679.3,670,682.5,660.6,681,652.9z"/>
			</g>
		</g>
		
			<rect x="328.6" y="-202.2" transform="matrix(9.199625e-02 -0.9958 0.9958 9.199625e-02 172.4813 606.0239)" class="st1" width="180" height="821.3"/>
		<g>
			<path class="st2" d="M60,219.2c0.2-31.7-5.9-63.7-7.5-95.6c-0.5-4.9-0.2-14.6,6.1-8.3c1.5,0.4,2.7-2.2,4-2.3
				c6.9,0.5,2.6,18,5.3,21.6c0.3-0.7,0.5-12.8,2-12.5c3.3,11.8,2.8,25.8,6.7,37.8c6.7,6.4,2.3,9.1,0.1,16.9
				c-8.4,7.5-4.1-36.7-8-41.3c-1.4,12.1,1.1,29.5,2.1,41.6c0,6.9-1.7,30.1,8.1,13.3c0.5-4,0.5-8.6,1.3-12.6
				c4.3-12.1,6.1-33,23.8-23.1c-0.8-7-9.8-5.6-13.7-7.7c9.1-8.7,20.5,5.5,22.4,14.1c4.7,11.6,9.5-29.3,13.9-31.5
				c-1.7,15.9-7.9,31.8-12.4,47.4c-6.8,13.8-3.3-22.3-10.8-14.7c-2.5,8.9,5.6,17.7,6,26.1c-2,2.9-3.8,7.9,1.2,9
				c2.2,0.5,3.8-4.1,5.1-5.6c0.3-19.7,9.9-38.9,14.6-57.7c0.5-6.8,4.9-23,13.8-13.4c3.9,5.3-1.1,10.3-3.6,15.1
				c-6,17.8-8.9,35.9-15.3,53.5c-1.6,8.6-14,22.1-5.2,29.1c13.5-27.7,14.2-60.1,26.7-87.9c-1.6,20.8-8.3,40.7-13.2,60.9
				c-5.1,13.7-7.9,50-29.7,38.4c-6.8-10.2-1.6-27.1-8.4-38.2c-1.5,6.6,2.3,13,0.7,19.5c-5.5-9.3-7.6,2.8-10.6,7.5
				C81.2,231.4,63.1,233.5,60,219.2z M77.5,211.2c0,15.7,14.9-13.2,9.1-15C81.2,197.3,78.6,206.5,77.5,211.2z M93.2,180.1
				c-0.3,3.1-0.6,8.8,3.6,9.3C97.1,186.4,97.8,179.7,93.2,180.1z"/>
			<path class="st2" d="M173.3,232.1c-30.4-21.4-23.2-88.9,10.7-103.9c64.1-25,66.7,70.6,33.2,101.8c33-14.3,29.1-63,17.8-91
				c18.4,22.5,15.1,60-0.6,82.9C222.3,240.7,188.5,248.9,173.3,232.1z M167.9,181c-10.3,67.5,65.2,53.9,58.6-3.9
				c-1.3,1.7-0.2,5.6-2.3,6.6c3.6-36.8-33.5-61.6-48.1-18c-2,15.5-4.2,37,8.4,48.9c2.7,3.4,17.6,2.7,21.3,3.6
				c-12.5,10.7-32.7-0.7-33.7-16.3c-1.2-3.4-2.8-17.1-3.1-20.8C168.9,181.1,167.9,181,167.9,181z M220,201.7
				c0.5,0.3,0.3,1.5-0.2,1.7C219.2,203.8,219.6,201.3,220,201.7z"/>
			<path class="st2" d="M277.6,241.7c-30.4-21.4-23.2-88.9,10.7-103.9c64.1-25,66.7,70.6,33.2,101.8c33-14.3,29.1-63,17.8-91
				c18.4,22.5,15.1,60-0.6,82.9C326.7,250.4,292.9,258.6,277.6,241.7z M272.2,190.6c-10.3,67.5,65.2,53.9,58.6-3.9
				c-1.3,1.7-0.2,5.6-2.3,6.6c3.6-36.8-33.5-61.6-48.1-18c-2,15.5-4.2,37,8.4,48.9c2.7,3.4,17.6,2.7,21.3,3.6
				c-12.5,10.7-32.7-0.7-33.7-16.3c-1.2-3.4-2.8-17.1-3.1-20.8C273.2,190.7,272.2,190.6,272.2,190.6z M324.3,211.4
				c0.5,0.3,0.3,1.5-0.2,1.7C323.6,213.5,323.9,211,324.3,211.4z"/>
			<path class="st2" d="M369.6,257.4l0.9-0.8c-18.4-1.6-7.9-23.9-8.7-35.8c2.3-25.4,5.4-49.4,8.7-74.7c3.6-1.2,13.1-4.3,12.5,2.5
				c-6.8,30.5-7.9,61.2-10.2,92.2c0,0,2.2,2.7,2.2,2.7c2.8-0.7,46.6,6.3,47.8,2.7c-7.7-7.4-50.5,1-46.8-13.9
				c1.6-17.4,3-34.1,5.2-51.6c2.2-6.4-0.1-28.3,5.8-29.1c3.2,13.9-14.1,88.6,2.6,85.3c4.1,0.7,53,5.7,36.6,9.5
				c12.6,18,3.9,18.2-13.3,15.7C399.6,261,382.7,259.5,369.6,257.4z"/>
			<path class="st2" d="M461.5,256.3c0.2-31.7-5.9-63.7-7.5-95.6c-0.5-4.9-0.2-14.6,6.1-8.3c1.5,0.4,2.7-2.2,4-2.3
				c6.9,0.5,2.6,18,5.3,21.6c0.3-0.7,0.5-12.8,2-12.5c3.3,11.8,2.8,25.8,6.7,37.8c6.7,6.4,2.3,9.1,0.1,16.9
				c-8.4,7.5-4.1-36.7-8-41.3c-1.4,12.1,1.1,29.5,2.1,41.6c0,6.9-1.7,30.1,8.1,13.3c0.5-4,0.5-8.6,1.3-12.6
				c4.3-12.1,6.1-33,23.8-23.1c-0.8-7-9.8-5.6-13.7-7.7c9.1-8.7,20.5,5.5,22.4,14.1c4.7,11.6,9.5-29.3,13.9-31.5
				c-1.7,15.9-7.9,31.8-12.4,47.4c-6.8,13.8-3.3-22.3-10.8-14.7c-2.5,8.9,5.6,17.7,6,26.1c-2,2.9-3.8,7.9,1.2,9
				c2.2,0.5,3.8-4.1,5.1-5.6c0.3-19.7,9.9-38.9,14.6-57.7c0.5-6.8,4.9-23,13.8-13.4c3.9,5.3-1.1,10.3-3.6,15.1
				c-6,17.8-8.9,35.9-15.3,53.5c-1.6,8.6-14,22.1-5.2,29.1c13.5-27.7,14.2-60.1,26.7-87.9c-1.6,20.8-8.3,40.7-13.2,60.9
				c-5.1,13.7-7.9,50-29.7,38.4c-6.8-10.2-1.6-27.1-8.4-38.2c-1.5,6.6,2.3,13,0.7,19.5c-5.5-9.3-7.6,2.8-10.6,7.5
				C482.7,268.5,464.6,270.7,461.5,256.3z M479,248.3c0,15.7,14.9-13.2,9.1-15C482.7,234.4,480.1,243.6,479,248.3z M494.7,217.2
				c-0.3,3.1-0.6,8.8,3.6,9.3C498.7,223.5,499.3,216.8,494.7,217.2z"/>
			<path class="st2" d="M564.5,162.3c2.1,0.4,3.2,2.3,5.4,0.5c11.2-2.7,0.5,21.9,1.2,27.8c-1.4,15.4-4.3,46.3-5.7,61.7
				c0.1,1.4,0.1,4.4,2,4.4c4.3-28.5,5.4-58,10.5-86.5c2.2,17.9-2.6,39-3,57.8c-2,13.4,0.5,61.9-22.5,42
				C550.6,267.5,558.5,160.1,564.5,162.3z"/>
			<path class="st2" d="M588.1,231.6c1.9-18.9,1.3-40.4,15.7-54.5c19.2-18.6,54.2-15.1,67.7,9c2.6,3,1.3,6.8,0.8,10.2
				c0,0-7.3,6.1-7.3,6.1c-11.9-0.8-14.2-19.3-28.2-18.7c-32.4-0.7-35,57.8-15.7,74.5c-28.5-0.5-15.9-62.6-3.8-76.3
				c-15,7.3-14.1,28.4-15.9,43c-4.1,22.1,8.5,46.4,33.9,38.7c12.5,0.5,20.5-31.4,31.3-12.9c2.1-1.2,3.6-7,4.7-1.4
				C669.5,295,585,295.6,588.1,231.6z"/>
			<path class="st2" d="M681.6,277.1c2.2-20.4,5.4-45.1,7.9-66.2c3.3-11.4-0.5-28.2,6.9-34.9c6.4,3.5,12-7.1,9.5,9.9
				c-3.2,7.2-3.3,21.3-3.3,28.8c-8.7,13,17.8,7.2,24.5,9.3c5.2-1.1,23.1,4.2,25.4,0.2c-0.2-5.7,1.7-32.4,2.6-38.6
				c0.6-5.6,8.9-6.2,12.8-4.3c1.7,2.8,5.8,2.6,6.7,5.4c-0.3,30.4-3.9,60.9-7.4,91.1c-0.3,9.4-12.2,20.2-20.1,12
				c-4.5-3.4,2.1-39.8,1.7-44.7c-1.4,0.9-3.8,0.6-5-0.5c-7.3-1.4-15.8-2.4-23.2-3.1c-4.9,0.1-13.8-3.7-14,3.9
				c-0.5,4.9-1,10.9-1.5,15.8c-0.7,8.3-0.3,18.3-7.4,24C690.7,291.4,679.9,286.7,681.6,277.1z M699.7,246.4c-4.9,1-4,25-5.2,28.3
				C699.3,286.3,701.7,249,699.7,246.4z M701.7,234l-0.2,1.7l2.6,0.2C704.4,234.5,702.9,233.7,701.7,234z M705.3,213.2
				c1.2-11.1,0.7-22.8,4.7-33.4C712.4,181.3,711.2,224.5,705.3,213.2z M749.3,239.3c-0.8-0.2-1,1.7-0.2,1.7
				C749.9,241.2,750.1,239.2,749.3,239.3z M761.9,236.2c0.6,1.9-6,43.7-1.9,43.8c4.3,3.5,3-13,4.3-16.5c2.2-19.6,4.4-38.8,5.5-58.4
				c-0.7-3.8,3.4-12.4-1.5-15.6c-3,7.6-2.9,21.6-4.5,30C763.6,225.2,758.3,231.3,761.9,236.2z"/>
		</g>
		
			<rect x="89.9" y="338" transform="matrix(0.9971 -7.590117e-02 7.590117e-02 0.9971 -31.2814 32.9133)" class="st1" width="654.9" height="180"/>
		<g>
			<path class="st2" d="M133.1,502.7c-1.3-17-2.8-36.4-4.1-53.5c0.9-13.9-7.1-45.7,1-55.1c0.8,0.1,11.7-1.5,11.8,0
				c9.6,12.3,19.9,28.1,29.5,39.3c4.5-1.5,3.1-8.6,5.9-11.6c8.5-10.6,10.6-30.1,23.8-35.6c4.6-0.7,9.5,8.7,12,1.6
				c3.7,0.5,13.2,106.8,7.1,104.3l-6.7-87.4c-0.6-3.6-1.4-12.8-5.4-3.8c-1.3,10.2,10.8,93.4,6.7,99.1c-12.2,5.2-12.6-11.4-11.6-19.5
				c0,0-4-52.8-4-52.8c-3.3,2,2,11.2-4.5,7.8c-20.8,26.9-19.5,28.5-43.2,2.5c-1.9,0-1.4,7.7-1.9,8.7c-1.4,4.9,9.1,56.6-1.2,53.3
				c-0.9-21.5-2.6-42.4-4.6-63.8l-1.2,0.1c-0.8,16.8-1.2,35,0.5,51.9c-0.3,2.4,1,6.6,2.2,8.3C148.8,505.2,137.4,512.1,133.1,502.7z
				 M140.8,413.5c0.6,3.5-1.1,6.7,4,6.6C144.6,417.1,143.3,415,140.8,413.5z M157,407c4.8,2.7,10,8.8,11.5,14.6
				C163.9,420,159,411.2,157,407z M197,409.9c0.4,0.7-0.2,7.9,1.3,7.7C203.2,418.6,200.6,409.3,197,409.9z"/>
			<path class="st2" d="M298.2,478.4c-2.3,0.1-5.4-0.5-7.6-0.3c-2,0.3-3.6,1.7-5.9,1.3c-2.2-0.8-26.1-0.7-26,3.8
				c-2,12.5-17,23.6-22.9,7.4c3.1-21.1,9.1-42,12.8-63.1c5.1-13.4,3.3-36.8,15.4-45.2c0,0,13.3-1,13.3-1s3.6,3.1,3.6,3.1
				c4.1,19,11.9,36.9,17.3,55.5c2.4,10.9,6.2,24.9,13.2,34.1c1,0.9,2.9,3.6,4.3,2.8c-6.7-31.5-26.7-60.2-29.9-92.9
				c13,29.4,25.1,63.5,35.3,95.3C316.6,502.6,305.7,495.3,298.2,478.4z M254.9,474.9c-1.8,0.1-2,1.6-1.9,3
				C254.7,478.3,257.4,476.3,254.9,474.9z M252.1,459.9l0.3,3.5c13.2-0.9,25-3.3,38.4-3.9c3.4-5.6-4-11.4-6.3-16.3
				c-2.6-4.5-1.2-14.8-5.5-17.3c-0.2-2.7-0.8-6.5-3.2-8.2c-8.5,7-3.5,33.8-13.8,38.9c-7.1,1.4,7.7-55.1,10.6-54.8
				c-4.2-19.9-8.9,18.8-10.6,23.7C259.1,436.8,261.1,451.7,252.1,459.9z"/>
			<path class="st2" d="M334.6,484.9c-1.6-17.7-2.8-35.8-3.6-53.3c2.1-7.6-9.6-57.3,2.4-51.9c11.5-7.3,7.2,6.1,7.8,12.8
				c0.1,12.2,4.2,27.6,0.2,39.2c5.7,8.3,10.5-7.6,14-11.4c12.3-9.9,28.3-50.4,43-47.4c19.7,7.9-6.2,26.7-11.1,37.8
				c-2.6,6.2,4.6,14.3,7.4,19.9c1.5,0.6,21.6,37,22.4,39.4c1.4,3.9-3.3,5.1-3.8,8.6c-1,12.7-15.1,7-16.1-2.6
				c-3.8-0.4-7.9-8.4-7.4-13l-2,0.2c-1.3-3.7-4.4-9.5-6.1-13c-3.2-0.6-6.7-8-8.4-10.7c0-1.1,1.4-1.7,0.6-3l-1.4,1.8l-2.7-2.3
				c-4.1,6.3-13.9,13-16.7,19.7c0,0,1.7,22.7,1.7,22.7C354.5,487.9,338.8,497,334.6,484.9z M344.5,471.6c0.2,2.3,0.5,8.2,4.1,7.2
				C352.5,467.9,342.9,447.3,344.5,471.6z M349.7,450c-0.9,0.4-2,1-2.4,1.9C348.6,452.4,350,451.7,349.7,450z M344.1,388
				c0.9-23.7,11.3,43.9,2.6,29.7C345.9,416.4,344.4,390.3,344.1,388z M368.4,424.9c-1.7,0.2-1.3,2.6-1.3,3.8
				C369.8,429.3,371.1,425.5,368.4,424.9z M405.7,466.8c1.6,1.6,3.3,3.3,5.8,3.1c-6.2-20.9-24.4-38.5-31.2-59.3
				c-4.4-0.2-2.1,5.7,1,6.7c0,0,0.8,10.1,0.8,10.1C392,438.3,397.4,454.5,405.7,466.8z"/>
			<path class="st2" d="M430.6,476c-2.3-33.4-5.7-69.1-6.3-102.4c-1-9.4,48.1-9.7,57.4-12c3.9,0,9.7-1.7,12.8,0.8
				c3,2.6,1,6.7,2.8,9.9c2.7,3.8-3.7,6.7-6.6,7.2c0,0-43.4,5-43.4,5c-3.3,5.5,0.5,13.9-1,20.3c-7.7,7.4-2.9-27-8.8-27.2
				c-0.8,11.8,0.4,23.5,1.1,35c1.2,2,8.2,1,10-0.3c0,0,25.9-2,25.9-2c15.1,0.2,10,3.5,15.4,13.2c-6.1,11.8-28.6,6.3-39.4,10.4
				c-2,2.9-0.3,21.4,2.6,23.7c14.5,2.6,33.3-2.8,46.6,2.2c-7.8,0-48.2,5.3-54.9,2.5c-0.7-3.3,0.2-25.7-4.9-20.6
				c0.3,1.9,0.8,17.1,2.2,18.3c0,3.1-2,6.1,2.3,7.3c11.6,2.2,60-13.2,58.2,4c0.6,6.8-6.6,8.4-11.7,9.5
				C480.6,479,434.4,492.4,430.6,476z M442.9,426.8c-0.9,0.1-1.4,0.5-1.6,1.2l1.7-0.1L442.9,426.8z"/>
			<path class="st2" d="M518.2,468.1c-1.3-16.6-2.4-33.2-3.3-49.8c1.4-15.7-7.6-41.5-0.4-54.3c31.4-5.1,73-18,75.5,28
				c2.7-7.2-2.1-14.6-2.5-21.8c11.5,8.4,9,29.6,1.5,40.4c-7.7,5.7-12.2,15.5-2.7,22c-0.3,2.2,20.7,28.1,9.1,25.1
				c1.1,7.4,1.4,13.6-8.5,12.6c-4.1-0.3-4.6-4.8-6.4-7.6c-6.7-4.9-11.8-13.5-16.9-21.1c-7.9-14.9-10.7-13.6-26.4-11.9
				c-2.3,0.1,1.3,30.5,1.1,31.9C539.5,474.1,520.6,484.7,518.2,468.1z M528.1,455.2c-0.9,3.8,3.2,12.7,4.6,4.5
				c-0.3-2.5-1.1-20.9-2.6-22.6C525.1,439.1,528.7,450.4,528.1,455.2z M526.2,409.6c1.2,4.8,7.8,0.8,11,0.8
				c16,1.4,40.4-2.7,38.8-23.5c-1.4-4.5-2.8,1.9-3.2,3c-7.7-16-25.4-11.8-40.4-10.4c-2.7,1.2,0.1,18.9-0.1,21.1
				c0.3,0.8,1.3,3.7,1.1,4.5C530.4,405.3,525.6,405,526.2,409.6z M530,425.4c0.1,4.4,6.7-2.4,1.7-1.9
				C530.4,423.5,529.9,424.2,530,425.4z M537.9,405.4c3.6-2,9.3-1.4,13.3-2.2l0.2,2.4C547.3,405.4,541.7,406.8,537.9,405.4z
				 M553.8,422.1c0.2,1.7,1.2,4.3,3.4,4C557,423.9,556.6,421.8,553.8,422.1z M561.8,433c-0.8-0.1-0.7,1.9,0.1,1.7
				C562.7,434.7,562.6,432.8,561.8,433z M569.2,419.4c7.9,11.2,10.7,32.4,25.6,37.2c-4.4-15-18.8-25-21.9-40.1
				C571.8,416.7,568.9,417.7,569.2,419.4z"/>
			<path class="st2" d="M627,461.8c-6.5-4-25.6-23.7-6.6-22.5c3.8,4.7,8.1,11,14.4,11.9c17.8,5.6,49.6-9.8,32-30.3l-0.7,1.7
				c-12.8-11.9-36.6-1.5-47.7-17.5c-28.5-42.7,31.5-73.8,61.1-41.6c0.3,6.5-1.8,17.9-10.3,17.6c-6.7-2.3-9.7-10.2-17-12
				c-13.9-4.1-26.9,5.8-19.8,20.6c-5.7,0.5-6.3-8.2-6.8-12.1c-5.8,6.1,3.9,18.5,11.6,19.7c14.6,1.1,28.7,1.5,40.4,10.9
				c-5.3-8.5-16-9.5-23.9-14.2C721.8,398.8,686.4,492.8,627,461.8z M615.5,433.1c18-2.6,14.8,15.4,39.5,10.5
				c4.4,1.1,0.1,4.5-2.7,4.5C636.8,452.7,627.4,439.4,615.5,433.1z M626.1,373.3c-0.8-0.1-0.7,1.9,0.1,1.7
				C627.1,375,626.9,373.1,626.1,373.3z M672.8,366.4c-0.2-0.1-0.3,0.1-0.3,0.5C672.6,367.8,673.8,366.7,672.8,366.4z M679.7,413.1
				l5.2,12.2c-0.5-5.2-0.4-9.9-5.2-13L679.7,413.1z"/>
		</g>
		
			<rect x="328" y="333.2" transform="matrix(9.199625e-02 -0.9958 0.9958 9.199625e-02 -271.2741 1009.6182)" class="st1" width="180" height="640.7"/>
		<g>
			<path class="st2" d="M134.6,678.6c1.6-17,3.4-36.3,5-53.4c3.2-13.5,0.6-46.3,10.2-54.1c0.8,0.2,11.8,0.5,11.7,1.9
				c7.4,13.7,14.9,31,22.5,43.6c4.7-0.7,4.5-7.9,7.7-10.4c10.2-9,15.5-27.9,29.4-31.1c4.6,0.1,7.9,10.2,11.5,3.6
				c3.5,1.1-4.8,107.6-10.5,104l8.1-87.3c-0.3,0.1,0.5-8.7-0.7-7.8c-7.3-3.9-9.9,86.2-11.7,87.7c7.4,13.6-12.2,22.2-12.3,5
				c1.5-7.6,6.2-55.8,6.8-64.6c-3.6,1.4,0.1,11.4-5.7,7c-25,23-24.1,24.9-43-4.8c-1.9-0.3-2.7,7.4-3.3,8.3
				c-2.2,4.6-0.4,57.4-10.1,52.3c2.7-21.3,4.5-42.2,6.1-63.7l-1.2-0.1c-3.7,16.5-7,34.3-8.2,51.2c-0.7,2.3-0.1,6.6,0.7,8.6
				C149.7,683.7,137.2,688.6,134.6,678.6z M157.1,592c0,3.5-2.2,6.5,2.8,7.1C160.2,596.2,159.2,593.8,157.1,592z M174.1,588.2
				c4.2,3.4,8.4,10.4,8.9,16.3C178.7,602.2,175.4,592.8,174.1,588.2z M213.1,597.8c0.2,0.7-1.5,7.7,0,7.8
				C217.7,607.4,216.7,597.9,213.1,597.8z"/>
			<path class="st2" d="M301.3,682.3c-2.3-0.3-5.2-1.4-7.5-1.5c-2.1,0-3.9,1.1-6,0.3c-2.1-1.2-25.7-5.1-26.3-0.6
				c-4,12-20.7,20.4-23.8,3.5c6.6-20.3,16-39.9,23.1-60.1c7.1-12.2,9.6-36.1,22.8-42c0,0,13.3,1.2,13.3,1.2s3,3.7,3,3.7
				c0.9,19.4,5.5,38.4,7.8,57.6c0.6,11.1,2,25.6,7.3,35.8c0.8,1,2.3,4.1,3.8,3.5c-1.3-32.2-16.3-63.9-13.9-96.6
				c7.9,31.1,14.1,66.8,18.9,99.8C315.6,709.1,305.7,700.2,301.3,682.3z M259.3,671.6c-1.8-0.2-2.3,1.3-2.4,2.7
				C258.5,674.9,261.5,673.3,259.3,671.6z M259,656.4l-0.3,3.5c13.2,1.3,25.3,0.9,38.5,2.6c4.3-4.9-2-11.9-3.5-17.1
				c-1.8-4.9,1.3-14.8-2.6-18c0.2-2.7,0.3-6.5-1.7-8.6c-9.6,5.5-9.1,32.8-20.1,36.1c-7.3,0.3,16.8-53.1,19.5-52.2
				c-0.8-20.3-11.9,17.1-14.4,21.6C269.8,634.7,269.3,649.8,259,656.4z"/>
			<path class="st2" d="M336.4,692c1.5-16.6,3.2-33.2,5.1-49.6c3.9-14.7-0.4-43.1,8.7-53.6c31.8,0.2,75-5.5,69.7,40.3
				c3.8-6.6,0.4-14.8,1.2-21.9c9.9,10.3,3.9,30.7-5.3,40.1c-8.6,4.3-14.6,13.2-6.3,21.3c-0.6,2.2,15.7,31.1,4.8,26.3
				c-0.2,7.5-0.9,13.6-10.5,11c-4-0.9-3.8-5.5-5.1-8.6c-5.7-6-9.3-15.3-13.1-23.6c-5.3-16.1-8.3-15.2-24.1-16.2
				c-2.3-0.3-3.9,30.3-4.2,31.6C356.4,701.4,336.2,708.7,336.4,692z M348.4,680.9c-1.6,3.6,1.1,13,3.8,5.2
				c0.1-2.5,2.4-20.8,1.2-22.7C348.2,664.5,349.8,676.3,348.4,680.9z M354.2,635.7c0.4,4.9,7.5,2.1,10.7,2.7
				c15.5,4,40.3,4.1,42.1-16.7c-0.6-4.6-3,1.4-3.6,2.5c-4.9-17.1-23.1-15.9-38.1-17c-2.9,0.7-3.1,18.7-3.6,20.8
				c0.2,0.8,0.7,3.8,0.3,4.6C359,632.1,354.3,630.9,354.2,635.7z M355.2,651.8c-0.6,4.4,7-1.2,2-1.6
				C356,650.1,355.3,650.7,355.2,651.8z M366.4,633.4c3.9-1.4,9.5,0.1,13.5,0l-0.2,2.4C375.7,635,369.9,635.5,366.4,633.4z
				 M379.3,652.6c-0.1,1.7,0.5,4.4,2.7,4.5C382.1,654.9,382.1,652.8,379.3,652.6z M385.3,664.7c-0.8-0.2-1,1.7-0.2,1.7
				C386,666.5,386.1,664.6,385.3,664.7z M394.9,652.5c5.9,12.4,5.1,33.8,19,41c-1.8-15.6-14.4-27.8-14.9-43.2
				C397.9,650.2,394.9,650.7,394.9,652.5z"/>
			<path class="st2" d="M431.3,703.6c1.4-17.7,3.3-35.8,5.4-53.1c3.3-7.1,0.1-58.1,11-50.8c12.6-5.2,6.1,7.2,5.5,13.9
				c-2,12.1-0.5,27.9-6.3,38.7c4.2,9.1,11.6-5.7,15.7-8.9c13.8-7.7,36.3-45,50.3-39.5c18.1,11.1-10.5,25.3-17.2,35.4
				c-3.6,5.7,2.2,14.8,3.9,20.8c1.4,0.9,15.1,40,15.4,42.6c0.7,4.1-4.1,4.4-5.1,7.8c-3.1,12.3-16,4.4-15.4-5.3
				c-3.7-1.1-6.4-9.6-5.1-14l-2-0.2c-0.6-3.8-2.8-10.1-3.8-13.9c-3-1.1-5.3-9-6.5-11.9c0.2-1.1,1.7-1.4,1.1-2.8l-1.7,1.5l-2.3-2.8
				c-5.1,5.5-15.9,10.5-19.8,16.7c0,0-2.1,22.6-2.1,22.6C450.4,709.8,433.4,716.2,431.3,703.6z M443.2,692.1
				c-0.2,2.3-0.9,8.2,2.8,7.7C451.8,689.7,445.7,667.9,443.2,692.1z M452,671.7c-0.9,0.2-2.1,0.7-2.7,1.5
				C450.5,673.9,452,673.4,452,671.7z M456.9,609.7c4.9-23.2,3.8,45.2-2.4,29.7C453.9,637.9,456.8,611.9,456.9,609.7z M474.6,650.1
				c-1.7-0.1-1.8,2.4-1.9,3.6C475.2,654.6,477.2,651.1,474.6,650.1z M504.4,697.6c1.3,1.8,2.7,3.8,5.2,4
				C507,680,492,659.6,488.8,638c-4.3-1-3,5.2-0.1,6.7c0,0-0.9,10.1-0.9,10.1C495.6,667.2,498.3,684.1,504.4,697.6z"/>
			<path class="st2" d="M527.3,710.9c3.4-33.3,5.9-69,10.9-102c0.4-9.4,49.1-1.6,58.6-2.2c3.9,0.7,9.8-0.1,12.5,3
				c2.7,3.2-0.5,7.5,1.5,11c0.5,3.9-5.2,5.1-8.1,5.2c0,0-43.6-2.3-43.6-2.3c-4.2,4.8-1.8,13.8-4.4,19.9c-8.9,5.6,1.8-26.7-4.1-28.3
				c-2.8,11.5-3.5,23.3-4.8,34.7c0.9,2.2,7.9,2.3,9.9,1.3c0,0,25.9,2.4,25.9,2.4c14.7,2.8,9.3,5.1,12.9,15.6
				c-7.9,10.6-29.3,1.5-40.6,3.7c-2.5,2.5-3.9,21.1-1.3,23.8c13.9,5,33.3,2.8,45.6,9.9c-7.7-1.3-48.4-2.8-54.6-6.7
				c-0.1-3.3,4.5-25.4-1.4-21.1c-0.1,2-2.1,17-0.9,18.4c-0.6,3-3,5.6,1,7.6c11.1,4.1,61.3-3,56.7,13.7c-0.6,6.8-8,7.1-13.1,7.4
				C576.2,722.3,528.4,727.7,527.3,710.9z M547.7,664.4c-0.9-0.1-1.5,0.2-1.8,0.9l1.7,0.2L547.7,664.4z"/>
			<path class="st2" d="M658,627.5c-5.1-0.6-0.9,6.8-4.9,7.8c-8.5-5.9-35-4-27.5-20.4c0.8-1.1,2.4-1.4,4.2-1.2
				c0.7,0.7,3.1,2.2,4,2.1c20.2,0.2,39.6,0.2,59.7,2.1c8.2-1.6,14,8.5,9.2,15c-5.4,3.8-12.9,0.4-19.4,2.4
				c-11.9-5.5-10.8,74.4-15.6,87.5c-2.2,9.7-15.5,11.4-18.6,1.7C649.1,724.4,658,627.5,658,627.5z M671.2,630.2c-0.1,1,0,3,1.4,3
				l0.4-4.7C671.9,628.4,671.3,629,671.2,630.2z M672.2,637.9c-0.6,0.4-1.9,1.6-1.9,2.4c0,0-6.2,67-6.2,67
				c4.4-14.3,4.2-28.8,6.3-43.6C670.5,655,673.8,645.5,672.2,637.9z"/>
		</g>
		<g>
			<path class="st3" d="M59.5,218.7c0.2-31.7-5.9-63.7-7.5-95.6c-0.5-4.9-0.2-14.6,6.1-8.3c1.5,0.4,2.7-2.2,4-2.3
				c6.9,0.5,2.6,18,5.3,21.6c0.3-0.7,0.5-12.8,2-12.5c3.3,11.8,2.8,25.8,6.7,37.8c6.7,6.4,2.3,9.1,0.1,16.9
				c-8.4,7.5-4.1-36.7-8-41.3c-1.4,12.1,1.1,29.5,2.1,41.6c0,6.9-1.7,30.1,8.1,13.3c0.5-4,0.5-8.6,1.3-12.6
				c4.3-12.1,6.1-33,23.8-23.1c-0.8-7-9.8-5.6-13.7-7.7c9.1-8.7,20.5,5.5,22.4,14.1c4.7,11.6,9.5-29.3,13.9-31.5
				c-1.7,15.9-7.9,31.8-12.4,47.4c-6.8,13.8-3.3-22.3-10.8-14.7c-2.5,8.9,5.6,17.7,6,26.1c-2,2.9-3.8,7.9,1.2,9
				c2.2,0.5,3.8-4.1,5.1-5.6c0.3-19.7,9.9-38.9,14.6-57.7c0.5-6.8,4.9-23,13.8-13.4c3.9,5.3-1.1,10.3-3.6,15.1
				c-6,17.8-8.9,35.9-15.3,53.5c-1.6,8.6-14,22.1-5.2,29.1c13.5-27.7,14.2-60.1,26.7-87.9c-1.6,20.8-8.3,40.7-13.2,60.9
				c-5.1,13.7-7.9,50-29.7,38.4c-6.8-10.2-1.6-27.1-8.4-38.2c-1.5,6.6,2.3,13,0.7,19.5c-5.5-9.3-7.6,2.8-10.6,7.5
				C80.8,230.9,62.7,233,59.5,218.7z M77.1,210.6c0.6,15,12.5-10.4,10.3-14.5C81.3,194.3,78.1,206.3,77.1,210.6z M92.8,179.6
				c-0.3,3.1-0.6,8.8,3.6,9.3C96.7,185.9,97.4,179.2,92.8,179.6z"/>
			<path class="st3" d="M172.9,231.6c-30.4-21.4-23.2-88.9,10.7-103.9c64.1-25,66.7,70.6,33.2,101.8c33-14.3,29.1-63,17.8-91
				c18.4,22.5,15.1,60-0.6,82.9C221.9,240.2,188.1,248.4,172.9,231.6z M167.4,180.5c-10.3,67.5,65.2,53.9,58.6-3.9
				c-1.3,1.7-0.2,5.6-2.3,6.6c3.6-36.8-33.5-61.6-48.1-18c-2,15.5-4.2,37,8.4,48.9c2.7,3.4,17.6,2.7,21.3,3.6
				c-12.5,10.7-32.7-0.7-33.7-16.3c-1.2-3.4-2.8-17.1-3.1-20.8C168.5,180.6,167.4,180.5,167.4,180.5z M219.5,201.2
				c0.5,0.3,0.3,1.5-0.2,1.7C218.8,203.3,219.2,200.8,219.5,201.2z"/>
			<path class="st3" d="M277.2,241.2c-30.4-21.4-23.2-88.9,10.7-103.9c64.1-25,66.7,70.6,33.2,101.8c33-14.3,29.1-63,17.8-91
				c18.4,22.5,15.1,60-0.6,82.9C326.2,249.9,292.4,258.1,277.2,241.2z M271.8,190.1c-10.3,67.5,65.2,53.9,58.6-3.9
				c-1.3,1.7-0.2,5.6-2.3,6.6c3.6-36.8-33.5-61.6-48.1-18c-2,15.5-4.2,37,8.4,48.9c2.7,3.4,17.6,2.7,21.3,3.6
				c-12.5,10.7-32.7-0.7-33.7-16.3c-1.2-3.4-2.8-17.1-3.1-20.8C272.8,190.2,271.8,190.1,271.8,190.1z M323.9,210.9
				c0.5,0.3,0.3,1.5-0.2,1.7C323.1,212.9,323.5,210.4,323.9,210.9z"/>
			<path class="st3" d="M369.1,256.9l0.9-0.8c-18.4-1.6-7.9-23.9-8.7-35.8c2.3-25.4,5.4-49.4,8.7-74.7c3.6-1.2,13.1-4.3,12.5,2.5
				c-6.8,30.5-7.9,61.2-10.2,92.2c0,0,2.2,2.7,2.2,2.7c2.8-0.7,46.6,6.3,47.8,2.7c-7.7-7.4-50.5,1-46.8-13.9
				c1.6-17.4,3-34.1,5.2-51.6c2.2-6.4-0.1-28.3,5.8-29.1c3.2,13.9-14.1,88.6,2.6,85.3c4.1,0.7,53,5.7,36.6,9.5
				c12.6,18,3.9,18.2-13.3,15.7C399.2,260.5,382.3,258.9,369.1,256.9z"/>
			<path class="st3" d="M461,255.8c0.2-31.7-5.9-63.7-7.5-95.6c-0.5-4.9-0.2-14.6,6.1-8.3c1.5,0.4,2.7-2.2,4-2.3
				c6.9,0.5,2.6,18,5.3,21.6c0.3-0.7,0.5-12.8,2-12.5c3.3,11.8,2.8,25.8,6.7,37.8c6.7,6.4,2.3,9.1,0.1,16.9
				c-8.4,7.5-4.1-36.7-8-41.3c-1.4,12.1,1.1,29.5,2.1,41.6c0,6.9-1.7,30.1,8.1,13.3c0.5-4,0.5-8.6,1.3-12.6
				c4.3-12.1,6.1-33,23.8-23.1c-0.8-7-9.8-5.6-13.7-7.7c9.1-8.7,20.5,5.5,22.4,14.1c4.7,11.6,9.5-29.3,13.9-31.5
				c-1.7,15.9-7.9,31.8-12.4,47.4c-6.8,13.8-3.3-22.3-10.8-14.7c-2.5,8.9,5.6,17.7,6,26.1c-2,2.9-3.8,7.9,1.2,9
				c2.2,0.5,3.8-4.1,5.1-5.6c0.3-19.7,9.9-38.9,14.6-57.7c0.5-6.8,4.9-23,13.8-13.4c3.9,5.3-1.1,10.3-3.6,15.1
				c-6,17.8-8.9,35.9-15.3,53.5c-1.6,8.6-14,22.1-5.2,29.1c13.5-27.7,14.2-60.1,26.7-87.9c-1.6,20.8-8.3,40.7-13.2,60.9
				c-5.1,13.7-7.9,50-29.7,38.4c-6.8-10.2-1.6-27.1-8.4-38.2c-1.5,6.6,2.3,13,0.7,19.5c-5.5-9.3-7.6,2.8-10.6,7.5
				C482.3,268,464.2,270.1,461,255.8z M478.6,247.8c0.3,18.6,18.7-23.3,6-13.3C481.7,237.8,479.2,243.5,478.6,247.8z M494.3,216.7
				c-0.3,3.1-0.6,8.8,3.6,9.3C498.2,223,498.9,216.3,494.3,216.7z"/>
			<path class="st3" d="M564.1,161.8c2.1,0.4,3.2,2.3,5.4,0.5c11.2-2.7,0.5,21.9,1.2,27.8c-1.4,15.4-4.3,46.3-5.7,61.7
				c0.1,1.4,0.1,4.4,2,4.4c4.3-28.5,5.4-58,10.5-86.5c2.2,17.9-2.6,39-3,57.8c-2,13.4,0.5,61.9-22.5,42
				C550.1,267,558,159.6,564.1,161.8z"/>
			<path class="st3" d="M587.6,231.1c1.9-18.9,1.3-40.4,15.7-54.5c19.2-18.6,54.2-15.1,67.7,9c2.6,3,1.3,6.8,0.8,10.2
				c0,0-7.3,6.1-7.3,6.1c-11.9-0.8-14.2-19.3-28.2-18.7c-32.4-0.7-35,57.8-15.7,74.5c-28.5-0.5-15.9-62.6-3.8-76.3
				c-15,7.3-14.1,28.4-15.9,43c-4.1,22.1,8.5,46.4,33.9,38.7c12.5,0.5,20.5-31.4,31.3-12.9c2.1-1.2,3.6-7,4.7-1.4
				C669,294.5,584.6,295.1,587.6,231.1z"/>
			<path class="st3" d="M681.2,276.6c2.2-20.4,5.4-45.1,7.9-66.2c3.3-11.4-0.5-28.2,6.9-34.9c6.6,3.5,12-7.1,9.5,9.9
				c-3.2,7.2-3.3,21.3-3.3,28.8c-8.7,13,17.8,7.2,24.5,9.3c5.2-1.1,23.1,4.2,25.4,0.2c-0.2-5.7,1.7-32.4,2.6-38.6
				c0.6-5.6,8.9-6.2,12.8-4.3c1.7,2.8,5.8,2.6,6.7,5.4c-0.3,30.4-3.9,60.9-7.4,91.1c-0.3,9.4-12.2,20.2-20.1,12
				c-4.5-3.4,2.1-39.8,1.7-44.7c-1.4,0.9-3.8,0.6-5-0.5c-7.3-1.4-15.8-2.4-23.2-3.1c-4.9,0.1-13.8-3.7-14,3.9
				c-0.5,4.9-1,10.9-1.5,15.8c-0.7,8.3-0.3,18.3-7.4,24C690.3,290.8,679.5,286.2,681.2,276.6z M699.2,245.9c-4.9,1-4,25-5.2,28.3
				C698.9,285.8,701.3,248.5,699.2,245.9z M701.2,233.5l-0.2,1.7l2.6,0.2C704,234,702.4,233.2,701.2,233.5z M704.8,212.7
				c1.2-11.1,0.7-22.8,4.7-33.4C712,180.8,710.8,224,704.8,212.7z M748.8,238.8c-0.8-0.2-1,1.7-0.2,1.7
				C749.4,240.6,749.6,238.7,748.8,238.8z M761.4,235.7c0.6,1.9-6,43.7-1.9,43.8c4.3,3.5,3-13,4.3-16.5c2.2-19.6,4.4-38.8,5.5-58.4
				c-0.7-3.8,3.4-12.4-1.5-15.6c-3,7.6-2.9,21.6-4.5,30C763.1,224.7,757.8,230.8,761.4,235.7z"/>
		</g>
		<g>
			<path class="st4" d="M133,503.4c-1.3-17-2.8-36.4-4.1-53.5c0.9-13.9-7.1-45.7,1-55.1c0.8,0.1,11.7-1.5,11.8,0
				c9.6,12.3,19.9,28.1,29.5,39.3c4.5-1.5,3.1-8.6,5.9-11.6c8.5-10.6,10.6-30.1,23.8-35.6c4.6-0.7,9.5,8.7,12,1.6
				c3.7,0.5,13.2,106.8,7.1,104.3l-6.7-87.4c-0.6-3.6-1.4-12.8-5.4-3.8c-1.3,10.2,10.8,93.4,6.7,99.1c-12.2,5.2-12.6-11.4-11.6-19.5
				c0,0-4-52.8-4-52.8c-3.3,2,2,11.2-4.5,7.8c-20.8,26.9-19.5,28.5-43.2,2.5c-1.9,0-1.4,7.7-1.9,8.7c-1.4,4.9,9.1,56.6-1.2,53.3
				c-0.9-21.5-2.6-42.4-4.6-63.8l-1.2,0.1c-0.8,16.8-1.2,35,0.5,51.9c-0.3,2.4,1,6.6,2.2,8.3C148.7,505.9,137.2,512.9,133,503.4z
				 M140.7,414.3c0.6,3.5-1.1,6.7,4,6.6C144.4,417.9,143.1,415.7,140.7,414.3z M156.8,407.7c4.8,2.7,10,8.8,11.5,14.6
				C163.7,420.8,158.8,412,156.8,407.7z M196.8,410.6c0.4,0.7-0.2,7.9,1.3,7.7C203,419.3,200.5,410.1,196.8,410.6z"/>
			<path class="st4" d="M298,479.1c-2.3,0.1-5.4-0.5-7.6-0.3c-2,0.3-3.6,1.7-5.9,1.3c-2.2-0.8-26.1-0.7-26,3.8
				c-2,12.5-17,23.6-22.9,7.4c3.1-21.1,9.1-42,12.8-63.1c5.1-13.4,3.3-36.8,15.4-45.2c0,0,13.3-1,13.3-1l3.6,3.1
				c4.1,19,11.9,36.9,17.3,55.5c2.4,10.9,6.2,24.9,13.2,34.1c1,0.9,2.9,3.6,4.3,2.8c-6.7-31.5-26.7-60.2-29.9-92.9
				c13,29.4,25.1,63.5,35.3,95.3C316.5,503.2,305.4,496,298,479.1z M254.8,475.7c-1.8,0.1-2,1.6-1.9,3
				C254.6,479,257.2,477,254.8,475.7z M251.9,460.7l0.3,3.5c13.2-0.9,25-3.3,38.4-3.9c3.4-5.6-4-11.4-6.3-16.3
				c-2.6-4.5-1.2-14.8-5.5-17.3c-0.2-2.7-0.8-6.5-3.2-8.2c-8.5,7-3.5,33.8-13.8,38.9c-7.1,1.4,7.7-55.1,10.6-54.8
				c-4.2-19.9-8.9,18.8-10.6,23.7C258.9,437.5,261,452.5,251.9,460.7z"/>
			<path class="st4" d="M334.4,485.6c-1.6-17.7-2.8-35.8-3.6-53.3c2.1-7.6-9.6-57.3,2.4-51.9c11.5-7.3,7.2,6.1,7.8,12.8
				c0.1,12.2,4.2,27.6,0.2,39.2c5.7,8.3,10.5-7.6,14-11.4c12.3-9.9,28.3-50.4,43-47.4c19.7,7.9-6.2,26.7-11.1,37.8
				c-2.6,6.2,4.6,14.3,7.4,19.9c1.5,0.6,21.6,37,22.4,39.4c1.4,3.9-3.3,5.1-3.8,8.6c-1,12.7-15.1,7-16.1-2.6
				c-3.8-0.4-7.9-8.4-7.4-13l-2,0.2c-1.3-3.7-4.4-9.5-6.1-13c-3.2-0.6-6.7-8-8.4-10.7c0-1.1,1.4-1.7,0.6-3l-1.4,1.8l-2.7-2.3
				c-4.1,6.3-13.9,13-16.7,19.7c0,0,1.7,22.7,1.7,22.7C354.4,488.6,338.6,497.8,334.4,485.6z M344.3,472.4c0.2,2.3,0.5,8.2,4.1,7.2
				C352.3,468.6,342.8,448,344.3,472.4z M349.5,450.7c-0.9,0.4-2,1-2.4,1.9C348.4,453.1,349.8,452.4,349.5,450.7z M343.9,388.8
				c0.9-23.7,11.3,43.9,2.6,29.7C345.7,417.1,344.2,391,343.9,388.8z M368.2,425.6c-1.7,0.2-1.3,2.6-1.3,3.8
				C369.6,430,370.9,426.2,368.2,425.6z M405.5,467.6c1.6,1.6,3.3,3.3,5.8,3.1c-6.2-20.9-24.4-38.5-31.2-59.3
				c-4.4-0.2-2.1,5.7,1,6.7c0,0,0.8,10.1,0.8,10.1C391.8,439,397.3,455.3,405.5,467.6z"/>
			<path class="st4" d="M430.4,476.8c-2.3-33.4-5.7-69.1-6.3-102.4c-1-9.4,48.1-9.7,57.4-12c3.9,0,9.7-1.7,12.8,0.8
				c3,2.6,1,6.7,2.8,9.9c2.7,3.8-3.7,6.7-6.6,7.2c0,0-43.4,5-43.4,5c-3.3,5.5,0.5,13.9-1,20.3c-7.7,7.4-2.9-27-8.8-27.2
				c-0.8,11.8,0.4,23.5,1.1,35c1.2,2,8.2,1,10-0.3c0,0,25.9-2,25.9-2c15.1,0.2,10,3.5,15.4,13.2c-6.1,11.8-28.6,6.3-39.4,10.4
				c-2,2.9-0.3,21.4,2.6,23.7c14.5,2.6,33.3-2.8,46.6,2.2c-7.8,0-48.2,5.3-54.9,2.5c-0.7-3.3,0.2-25.7-4.9-20.6
				c0.3,1.9,0.8,17.1,2.2,18.3c0,3.1-2,6.1,2.3,7.3c11.6,2.2,60-13.2,58.2,4c0.6,6.8-6.6,8.4-11.7,9.5
				C480.4,479.8,434.2,493.2,430.4,476.8z M442.7,427.6c-0.9,0.1-1.4,0.5-1.6,1.2l1.7-0.1L442.7,427.6z"/>
			<path class="st4" d="M518,468.9c-1.3-16.6-2.4-33.2-3.3-49.8c1.4-15.7-7.6-41.5-0.4-54.3c31.4-5.1,73-18,75.5,28
				c2.7-7.2-2.1-14.6-2.5-21.8c11.5,8.4,9,29.6,1.5,40.4c-7.7,5.7-12.2,15.5-2.7,22c-0.3,2.2,20.7,28.1,9.1,25.1
				c1.1,7.4,1.4,13.6-8.5,12.6c-4.1-0.3-4.6-4.8-6.4-7.6c-6.7-4.9-11.8-13.5-16.9-21.1c-7.9-14.9-10.7-13.6-26.4-11.9
				c-2.3,0.1,1.3,30.5,1.1,31.9C539.3,474.9,520.5,485.4,518,468.9z M528,455.9c-0.9,3.8,3.2,12.7,4.6,4.5
				c-0.3-2.5-1.1-20.9-2.6-22.6C524.9,439.8,528.5,451.2,528,455.9z M526,410.4c1.2,4.8,7.8,0.8,11,0.8c16,1.4,40.4-2.7,38.8-23.5
				c-1.4-4.5-2.8,1.9-3.2,3c-7.7-16-25.4-11.8-40.4-10.4c-2.7,1.2,0.1,18.9-0.1,21.1c0.3,0.8,1.3,3.7,1.1,4.5
				C530.2,406,525.4,405.7,526,410.4z M529.8,426.1c0.1,4.4,6.7-2.4,1.7-1.9C530.2,424.3,529.7,424.9,529.8,426.1z M537.7,406.1
				c3.6-2,9.3-1.4,13.3-2.2l0.2,2.4C547.1,406.1,541.5,407.5,537.7,406.1z M553.7,422.9c0.2,1.7,1.2,4.3,3.4,4
				C556.9,424.6,556.5,422.6,553.7,422.9z M561.6,433.7c-0.8-0.1-0.7,1.9,0.1,1.7C562.5,435.5,562.4,433.5,561.6,433.7z M569,420.1
				c7.9,11.2,10.7,32.4,25.6,37.2c-4.4-15-18.8-25-21.9-40.1C571.6,417.4,568.7,418.4,569,420.1z"/>
			<path class="st4" d="M626.8,462.5c-6.5-4-25.6-23.7-6.6-22.5c3.8,4.7,8.1,11,14.4,11.9c17.8,5.6,49.6-9.8,32-30.3l-0.7,1.7
				c-12.8-11.9-36.6-1.5-47.7-17.5c-28.5-42.7,31.5-73.8,61.1-41.6c0.3,6.5-1.8,17.9-10.3,17.6c-6.7-2.3-9.7-10.2-17-12
				c-13.9-4.1-26.9,5.8-19.8,20.6c-5.7,0.5-6.3-8.2-6.8-12.1c-5.8,6.1,3.9,18.5,11.6,19.7c14.6,1.1,28.7,1.5,40.4,10.9
				c-5.3-8.5-16-9.5-23.9-14.2C721.6,399.6,686.2,493.5,626.8,462.5z M615.3,433.9c18-2.6,14.8,15.4,39.5,10.5
				c4.4,1.1,0.1,4.5-2.7,4.5C636.6,453.4,627.2,440.2,615.3,433.9z M626,374c-0.8-0.1-0.7,1.9,0.1,1.7
				C626.9,375.8,626.7,373.9,626,374z M672.6,367.1c-0.2-0.1-0.3,0.1-0.3,0.5C672.4,368.6,673.6,367.4,672.6,367.1z M679.5,413.9
				l5.2,12.2c-0.5-5.2-0.4-9.9-5.2-13L679.5,413.9z"/>
		</g>
		<g>
			<path class="st4" d="M134.7,678.8c1.6-17,3.4-36.3,5-53.4c3.2-13.5,0.6-46.3,10.2-54.1c0.8,0.2,11.8,0.5,11.7,1.9
				c7.4,13.7,14.9,31,22.5,43.6c4.7-0.7,4.5-7.9,7.7-10.4c10.2-9,15.5-27.9,29.4-31.1c4.6,0.1,7.9,10.2,11.5,3.6
				c3.5,1.1-4.8,107.6-10.5,104l8.1-87.3c-0.3,0.1,0.5-8.7-0.7-7.8c-7.3-3.9-9.9,86.2-11.7,87.7c7.4,13.6-12.2,22.2-12.3,5
				c1.5-7.6,6.2-55.8,6.8-64.6c-3.6,1.4,0.1,11.4-5.7,7c-25,23-24.1,24.9-43-4.8c-1.9-0.3-2.7,7.4-3.3,8.3
				c-2.2,4.6-0.4,57.4-10.1,52.3c2.7-21.3,4.5-42.2,6.1-63.7l-1.2-0.1c-3.7,16.5-7,34.3-8.2,51.2c-0.7,2.3-0.1,6.6,0.7,8.6
				C149.8,683.9,137.4,688.8,134.7,678.8z M157.2,592.2c0,3.5-2.2,6.5,2.8,7.1C160.3,596.4,159.4,594,157.2,592.2z M174.2,588.4
				c4.2,3.4,8.4,10.4,8.9,16.3C178.8,602.4,175.5,592.9,174.2,588.4z M213.2,598c0.2,0.7-1.5,7.7,0,7.8
				C217.8,607.6,216.9,598,213.2,598z"/>
			<path class="st4" d="M301.4,682.5c-2.3-0.3-5.2-1.4-7.5-1.5c-2.1,0-3.9,1.1-6,0.3c-2.1-1.2-25.7-5.1-26.3-0.6
				c-4,12-20.7,20.4-23.8,3.5c6.6-20.3,16-39.9,23.1-60.1c7.1-12.2,9.6-36.1,22.8-42c0,0,13.3,1.2,13.3,1.2s3,3.7,3,3.7
				c0.9,19.4,5.5,38.4,7.8,57.6c0.6,11.1,2,25.6,7.3,35.8c0.8,1,2.3,4.1,3.8,3.5c-1.3-32.2-16.3-63.9-13.9-96.6
				c7.9,31.1,14.1,66.8,18.9,99.8C315.7,709.3,305.9,700.3,301.4,682.5z M259.4,671.8c-1.8-0.2-2.3,1.3-2.4,2.7
				C258.7,675,261.6,673.5,259.4,671.8z M259.1,656.5l-0.3,3.5c13.2,1.3,25.3,0.9,38.5,2.6c4.3-4.9-2-11.9-3.5-17.1
				c-1.8-4.9,1.3-14.8-2.6-18c0.2-2.7,0.3-6.5-1.7-8.6c-9.6,5.5-9.1,32.8-20.1,36.1c-7.3,0.3,16.8-53.1,19.5-52.2
				c-0.8-20.3-11.9,17.1-14.4,21.6C269.9,634.9,269.4,650,259.1,656.5z"/>
			<path class="st4" d="M336.5,692.2c1.5-16.6,3.2-33.2,5.1-49.6c3.9-14.7-0.4-43.1,8.7-53.6c31.8,0.2,75-5.5,69.7,40.3
				c3.8-6.6,0.4-14.8,1.2-21.9c9.9,10.3,3.9,30.7-5.3,40.1c-8.6,4.3-14.6,13.2-6.3,21.3c-0.6,2.2,15.7,31.1,4.8,26.3
				c-0.2,7.5-0.9,13.6-10.5,11c-4-0.9-3.8-5.5-5.1-8.6c-5.7-6-9.3-15.3-13.1-23.6c-5.3-16.1-8.3-15.2-24.1-16.2
				c-2.3-0.3-3.9,30.3-4.2,31.6C356.6,701.6,336.3,708.9,336.5,692.2z M348.5,681.1c-1.6,3.6,1.1,13,3.8,5.2
				c0.1-2.5,2.4-20.8,1.2-22.7C348.3,664.7,349.9,676.5,348.5,681.1z M354.3,635.9c0.4,4.9,7.5,2.1,10.7,2.7
				c15.5,4,40.3,4.1,42.1-16.7c-0.6-4.6-3,1.4-3.6,2.5c-4.9-17.1-23.1-15.9-38.1-17c-2.9,0.7-3.1,18.7-3.6,20.8
				c0.2,0.8,0.7,3.8,0.3,4.6C359.1,632.3,354.4,631.1,354.3,635.9z M355.3,652c-0.9,3.6,5.4,0.3,3.3-1.2
				C357.2,650.1,355.4,650.2,355.3,652z M366.5,633.6c3.9-1.4,9.5,0.1,13.5,0l-0.2,2.4C375.8,635.2,370,635.7,366.5,633.6z
				 M379.4,652.8c-0.1,1.7,0.5,4.4,2.7,4.5C382.3,655.1,382.2,653,379.4,652.8z M385.5,664.8c-0.8-0.2-1,1.7-0.2,1.7
				C386.1,666.7,386.3,664.8,385.5,664.8z M395,652.7c5.9,12.4,5.1,33.8,19,41c-1.8-15.6-14.4-27.8-14.9-43.2
				C398,650.4,395,650.9,395,652.7z"/>
			<path class="st4" d="M431.4,703.8c1.4-17.7,3.3-35.8,5.4-53.2c3.3-7.1,0.1-58.1,11-50.8c12.6-5.2,6.1,7.2,5.5,13.9
				c-2,12.1-0.5,27.9-6.3,38.7c4.2,9.1,11.6-5.7,15.7-8.9c13.8-7.7,36.3-45,50.3-39.5c18.1,11.1-10.5,25.3-17.2,35.4
				c-3.6,5.7,2.2,14.8,3.9,20.8c1.4,0.8,15.1,40.1,15.5,42.6c0.7,4.1-4.1,4.4-5.1,7.8c-3.1,12.3-16,4.4-15.4-5.3
				c-3.7-1.1-6.4-9.6-5.1-14l-2-0.2c-0.6-3.8-2.8-10.1-3.8-13.9c-3-1.1-5.3-9-6.5-11.9c0.2-1.1,1.7-1.4,1.1-2.8l-1.7,1.5l-2.3-2.8
				c-5.1,5.5-15.9,10.5-19.8,16.7c0,0-2.1,22.6-2.1,22.6C450.6,710.1,433.5,716.4,431.4,703.8z M443.3,692.3
				c-0.2,2.3-0.9,8.2,2.8,7.7C451.9,689.9,445.8,668.1,443.3,692.3z M452.1,671.8c-0.9,0.2-2.1,0.7-2.7,1.5
				C450.6,674.1,452.1,673.6,452.1,671.8z M457,609.8c4.9-23.2,3.8,45.2-2.4,29.7C454,638.1,456.9,612.1,457,609.8z M474.7,650.3
				c-1.7-0.1-1.8,2.4-1.9,3.6C475.3,654.8,477.3,651.3,474.7,650.3z M504.5,697.8c1.3,1.8,2.7,3.8,5.2,4
				c-2.6-21.6-17.6-42.1-20.8-63.7c-4.3-1-3,5.2-0.1,6.7c0,0-0.9,10.1-0.9,10.1C495.7,667.4,498.4,684.3,504.5,697.8z"/>
			<path class="st4" d="M527.5,711.1c3.4-33.3,5.9-69,10.9-102c0.4-9.4,49.1-1.6,58.6-2.2c3.9,0.7,9.8-0.1,12.5,3
				c2.7,3.2-0.5,7.5,1.5,11c0.5,3.9-5.2,5.1-8.1,5.2c0,0-43.6-2.3-43.6-2.3c-4.2,4.8-1.8,13.8-4.4,19.9c-8.9,5.6,1.8-26.7-4.1-28.3
				c-2.8,11.5-3.5,23.3-4.8,34.7c0.9,2.2,7.9,2.3,9.9,1.3c0,0,25.9,2.4,25.9,2.4c14.8,2.8,9.3,5.1,12.9,15.6
				c-7.9,10.6-29.3,1.5-40.6,3.7c-2.5,2.5-3.9,21.1-1.3,23.8c13.9,4.9,33.3,2.8,45.6,9.9c-7.7-1.3-48.4-2.8-54.6-6.7
				c-0.1-3.3,4.5-25.4-1.4-21.1c-0.1,2-2.1,17-0.9,18.4c-0.6,3-3,5.6,1,7.6c11.1,4.1,61.3-3,56.7,13.7c-0.6,6.8-8,7.1-13.1,7.4
				C576.3,722.4,528.4,727.9,527.5,711.1z M547.8,664.6c-0.9-0.1-1.5,0.2-1.8,0.9l1.7,0.2L547.8,664.6z"/>
			<path class="st4" d="M658.2,627.7c-5.1-0.6-0.9,6.8-4.9,7.8c-8.5-5.9-35-4-27.5-20.4c0.8-1.1,2.4-1.4,4.2-1.2
				c0.7,0.7,3.1,2.2,4,2.1c20.2,0.2,39.6,0.2,59.7,2.1c8.2-1.6,14,8.5,9.2,15c-5.4,3.8-12.9,0.4-19.4,2.4
				c-11.9-5.5-10.8,74.4-15.6,87.5c-2.2,9.7-15.5,11.4-18.6,1.7C649.2,724.6,658.2,627.7,658.2,627.7z M671.3,630.4
				c-0.1,1,0,3,1.4,3l0.4-4.7C672,628.6,671.4,629.2,671.3,630.4z M672.3,638.1c-0.6,0.4-1.9,1.6-1.9,2.4c0,0-6.2,67-6.2,67
				c4.4-14.3,4.2-28.8,6.3-43.6C670.7,655.2,673.9,645.7,672.3,638.1z"/>
		</g>
	</g>
</g>
</svg>
