<svg xmlns="http://www.w3.org/2000/svg" xml:space="preserve" style="enable-background:new 0 0 185.5 31.2" viewBox="0 0 185.5 31.2">
  <style>
    .st1{fill-rule:evenodd;clip-rule:evenodd}.st3{fill:#fff}
  </style>
  <path id="Rectangle_1_00000053505945879596342260000008088144263074481314_" d="M5 4.6h175.2v21.6H5z" class="st1" style="opacity:.4784;enable-background:new"/>
  <path id="Rectangle_1_copy_00000086675275571905445040000000279827312713763223_" d="M3.4 3.4h175.2V25H3.4z" class="st1" style="enable-background:new"/>
  <g id="Meet_the_maker">
    <path d="m22.2 7.3-.2-.5c-.2.2-.2.4-.5.2-1.4-1.5-2.3.9-3 1.9-1.8 2.3-1.2 4.2-3.2.6-.5-.8-1.2-2-1.8-2.7h-1.3c-1.2 2.4-.3 6.2-.6 9 .3 1.1-.7 4 .7 4.2 1.3-.1.5-1.5.6-2.2 0-2 .2-4.1.4-6h.1c-.1 8.8.4 10.8.7.4 1 0 1.8 3.5 3.4 1.9.8-.4 1.2-2.1 2-1.8.4-.1 0-.8.3-1 .4 1.1-1.2 9.7 1.2 8.5.5-.6-.1-10.5.1-11.6.4-.9.6 0 .6.5v10.2c1-.8.5-10.4.5-11.6zm-8.5 2.6c-.5 0-.3-.5-.4-.8.3.2.5.5.4.8.1 0 0 0 0 0zm6.6.1c-.5.6-.4-.6-.4-.8.4 0 .5.5.4.8z" class="st3"/>
    <path d="M15.8 9.5c.2.3.4.8.7.8-.1-.7-.7-1.4-1.2-1.8 0 .3.3.7.5 1zm17.7-1.9c-.2-.6.2-1.6-.8-1.5-2.4.1-5.1-.1-7.4.5-.7 2.5-.2 5.8-.4 8.4.2 1.4-.7 4.1.9 4.9-.1.2 5.9.1 6.1.1 1.1.1 2.2-1.4.9-1.9-2.1-.5-4.4.4-6.4-.2-.1-.6 0-2.2 0-2.8.7-.3.3 1.9.4 2.4.7.4 5.5.1 6.4.2-2.3-1.1-7.3.9-5.3-3.5 1.6-.1 5.4.6 4.1-2-1.1-.8-3.8-.3-5-.3-1.1 0-.3-3.3-.3-4.2.8.4-.2 3.3.7 3.3.4-.7-.1-1.8.4-2.5.5-.3 5.8.3 5.7-.9zm-6.8 5.7v.1h-.2s.1-.1.2-.1zm18.1-5.7c-.2-.6.1-1.6-.9-1.5-2.4.1-5.1-.1-7.4.5-.7 2.5-.2 5.8-.4 8.4.2 1.4-.7 4.1.9 4.9-.1.2 5.9.1 6.1.1 1.1.1 2.2-1.4.9-1.9-2.1-.5-4.4.4-6.4-.2-.1-.6 0-2.2 0-2.8.7-.3.3 1.9.4 2.4.7.4 5.5.1 6.4.2-2.4-1.2-7.4.9-5.4-3.6 1.6-.1 5.4.6 4.1-2-1.1-.8-3.8-.3-5-.3-1.1 0-.3-3.3-.3-4.2.8.4-.2 3.3.7 3.3.4-.7-.1-1.8.4-2.5.7-.2 6 .4 5.9-.8zM38 13.3v.1h-.2s.1-.1.2-.1zm18.7-6.4c-1.3-1.4-7.1 0-9.1-.2-.7 2 2.4 1.5 3.4 2.1.5-.1-.1-1 .5-1 .4.8-1.2 12.8 1.2 12 3.4-2.3-1.9-11.4 3.2-11.6.8.2 1.1-.6.8-1.3zm-3.5.9v.5c-.3 0-.3-.5 0-.5zm.1 1.5c-.1 2.5.1 5.2-.3 7.7.2-.3-.3-8 .2-8.1.1.1.1.2.1.4zm23.4-2.4c-1.3-1.4-7.1 0-9.1-.2-.7 2 2.4 1.5 3.4 2.1.5-.1-.1-1 .5-1 .4.8-1.2 12.8 1.2 12 3.4-2.3-1.9-11.4 3.2-11.6.8.2 1.1-.6.8-1.3zm-3.5.9v.5c-.2 0-.3-.5 0-.5zm.1 1.5c-.1 2.5.1 5.2-.3 7.7.2-.3-.3-8 .2-8.1.1.1.1.2.1.4zm15.9-1.5c0-.7-1-1.1-1.6-1-1.5.4-.5 4.2-.6 5.2-1.6.3-4.6.6-6.1 0 .4-1.1-.2-2.8.3-4 .1-1.6-.2-.9-1.2-1-.8 1-.2 2.7-.4 4.1.1 2.8-.6 6 0 8.6 2.3 1.5 2.5-2.4 2.3-3.8-.1-1.2 0-1.7 1.3-1.5 1.2-.1 2.5.2 3.6.1.1.6-.3 4.8.3 5.2.9.8 2.1-.3 2.2-1.3.1-3.6 0-7.1-.1-10.6zm-7.9 9.4c0 .3 0 2.2-.5 1.3.1-.4-.3-3.1.3-3.3.3.5.1 1.3.2 2zm-.1-3.3c-.1-.3.3-.3.3 0h-.3zm5.5.1c-.1 0-.1-.2 0-.2.1-.1.1.2 0 .2zm2.1-1.9c-.2.7.4 7.5-.6 5.9 0-3.1-.2-7.2.2-10.3.8 1.2.2 3.1.4 4.4z" class="st3"/>
    <path d="M81.4 11.2c.8 1 .5-3.6.2-3.9-.4 1.3-.2 2.6-.2 3.9zm19.2-3.6c-.3-.6.1-1.5-.9-1.5-2.4.1-5.1-.1-7.4.5-.7 2.5-.2 5.8-.4 8.4.2 1.4-.7 4.1.9 4.9-.1.2 5.9.1 6.1.1 1.1.1 2.2-1.4.9-1.9-2.1-.5-4.4.4-6.4-.2-.1-.6 0-2.2 0-2.8.7-.3.3 1.9.4 2.4.7.4 5.5.1 6.4.2-2.3-1.1-7.3.9-5.3-3.5 1.6-.1 5.4.6 4.1-2-1.1-.8-3.8-.3-5-.3-1.1 0-.3-3.3-.3-4.2.8.4-.2 3.3.7 3.3.4-.7-.1-1.8.4-2.5.5-.3 5.8.3 5.8-.9zm-6.9 5.7v.1h-.2c.1 0 .1-.1.2-.1zm21.6-3.8c.2.3.4.8.7.8-.1-.7-.7-1.4-1.2-1.8 0 .2.3.7.5 1z" class="st3"/>
    <path d="m121.7 7.2-.2-.5c-.2.2-.2.4-.5.2-1.4-1.5-2.3.9-3 1.9-1.8 2.3-1.2 4.2-3.2.6-.5-.8-1.2-2-1.8-2.7h-1.3c-1.2 2.4-.3 6.2-.6 9 .3 1.1-.7 4 .7 4.2 1.3-.1.5-1.5.6-2.2 0-2 .2-4.1.4-6h.1c-.1 8.8.4 10.8.7.4 1 0 1.8 3.5 3.4 1.9.8-.4 1.2-2.1 2-1.8.4-.1 0-.8.3-1 .4 1.1-1.2 9.7 1.2 8.5.5-.6-.1-10.5.1-11.6.4-.9.6 0 .6.5v10.2c1-.7.5-10.3.5-11.6zm-8.5 2.7c-.5 0-.3-.5-.3-.8.2.2.4.5.3.8.1 0 0 0 0 0zm6.6.1c-.5.6-.4-.6-.4-.8.4 0 .5.5.4.8zm14.4 8.2c-.9-3.7-2-7.8-3.2-11.3.1 3.8 2.1 7.3 2.6 11-2.2-2.8-2.1-7.5-3.2-11-.2-.6-1.5-.4-1.9-.4-.7.1-.9 1.1-1.1 1.6-.7 3.7-3.4 8-2.7 11.5 1.6 1.2 1.8-1.2 2.8-1.7 1.1 0 3 0 4 .1.7.1.3 1 .8 1.4.7 1.3 2-.2 1.9-1.2zm-7.5-.8c0 .2-.2.2-.4.2 0-.3.4-.5.4-.2zm4.3-1.8c-1.3.4-3.1.1-4.6.3-.1-.5.3-.7.6-1 .5-.8 1.7-8.4 2.3-6-.7 1.4-2.3 4.6-1.7 6.3 1.2-.1 1.3-6 2.2-3.6.3.5.3 1.2.4 1.9.1.8.9 1.2.8 2.1zm8-3.9c.6-.9.3-3.4-.1-4.3-.1.8-.3 3.5.1 4.3z" class="st3"/>
    <path d="M146.5 18c-.6-1.4-2.3-4.8-2.9-6.2-.7-1.9 4.7-4.1 1.3-5.3-2.3.9-3.4 3.9-5.3 5.5-.3.5-.7 1.4-1.4 1.2.4-1.8 0-4.2.4-6.1-2.6-2.2-1.4 4.2-1.7 5.7.2 1.7-1.3 9.5 2.2 6.1.6-3.3-.8-2.7 2.3-5.3l.3.3.2-.2c-.2.5.3 1.4.8 1.7.2.4.5 1.1.6 1.6h.2c-.1.5.3 1.5.7 1.6.5 2.4 2.1.9 2.3-.6zm-7.8-.4c0 .3-.2.7-.2.9-1.1-.2 0-4.2.2-.9zm.1-2.2c-.3.2-.2-.1.1-.2 0 .1 0 .1-.1.2zm2.5-2.6h-.2c-.2-.5.6-.4.2 0zm4.2 5.1c-1.2-1.4-1.5-3.7-2.7-5.1v-1.2c-.4-.1-.6-.8-.1-.8.6 2.5 2.6 4.7 3.1 7.2-.1 0-.2 0-.3-.1zm12.3-10.3c-.2-1.1-.2-1.7-1.6-1.5-2.1 0-4 .1-6.1.3-2.2.9-.5 6.5-1.1 8.6.2 1.3-.5 3.6.5 4.6.3.7 5.9.2 6.4.4 1.1.1 2.2-1.4.9-1.9-2.1-.5-4.4.4-6.4-.2-.1-.6 0-2.2 0-2.8.7-.3.3 1.9.4 2.4.7.4 5.5.1 6.4.2-2.3-1.1-7.3.9-5.3-3.5 1.6-.1 5.4.6 4.1-2-1.1-.8-3.8-.3-5-.3-1.1 0-.3-3.3-.3-4.2.8.4-.2 3.3.7 3.3.4-.7-.1-1.8.4-2.5.7-.3 6.1.3 6-.9zm-6.9 5.7v.1h-.2c.1 0 .1-.1.2-.1zm13.2-1.8c-.3 0-.7 0-.9.1.4.2 1.1.1 1.6.1v-.3c-.2.1-.5.1-.7.1z" class="st3"/>
    <path d="M169.9 17.9c-.3-1-1.7-2.9-1.9-3.9 1.2-1.6 3.2-4.1 1.3-6 0 .8.5 1.7.1 2.5.3-3.9-3-4.6-6.2-4.2-.3.2-2.6 0-2.7.6.2 2-1.6 17.5 2.2 11.2 0-.2-.1-3.7.2-3.7.4.1 2.1-.2 2.2.4.8 1.2 4 7.8 4.3 3.4.4.1.5.1.5-.3zm-7.8 0c-.6 1.5-.8-2.6-.1-2.6.2.2.1 2.3.1 2.6zm.4-4c-.3.4-.7-.1-.2-.2.1 0 .3 0 .2.2zm2.5.2c-.1-.1-.1-.2-.1-.3.3 0 .4.2.4.5-.1-.1-.2-.1-.3-.2zm.7 1.2c-.1 0-.1-.2 0-.2s.1.2 0 .2zm.6-3.2c-.8.6-6.6.2-3.6-.5 0-.6-.3-2.5.1-3 1.7 0 3.8-.4 4.6 1.6.9-1.7.1 1.9-1.1 1.9zm2.9 6c-.9-.7-3-4.4-2-4.8.2 1.8 1.8 3.1 2.2 4.8h-.2z" class="st3"/>
  </g>
</svg>
