<svg xmlns="http://www.w3.org/2000/svg" viewBox="0 0 300 300"><defs><style>.cls-1{fill:#1d1d1b;}.cls-2{fill:#616160;}</style></defs><g id="Layer_2" data-name="Layer 2"><path class="cls-1" d="M193.75,139.86c-2-2.65-6-2.65-8.48-2.64-5.24,0-9.19,2.1-14.08,4.82a74.38,74.38,0,0,0-9.44,6.34c-5.22,4-6.45,5.69-11.11,8.45a56.26,56.26,0,0,1-6.46,3.3c-3.77,1.8-6.28,3.25-10.88,5.91-8.69,5-8.93,6-13,7.24a48.92,48.92,0,0,0-6.58,2,19.94,19.94,0,0,0-7.29,4.36c-2.53,2.56-1.81,3.7-4,5.2-2.8,1.9-5,.77-6.24,2.58-1.07,1.55-.59,4,.34,5.45,2.26,3.6,8,3.1,8.89,3,2.17-.19,2.23-.76,6.42-1.88,3.75-1,4.84-.86,7.63-1.53a36.28,36.28,0,0,0,9.36-3.88c17.1-9.21,17.93-10.22,23.47-12.74,6.28-2.86,12.93-5.88,20.47-7.89a24,24,0,0,0,10-4.85,51.46,51.46,0,0,0,4.36-4.58c3-3.37,4.5-5.05,5.32-6.51C192.86,151.35,196.89,144,193.75,139.86Z"/><path class="cls-2" d="M181.23,148.78c-1.06,1.68-1.91,3.59-3,5.26-1.27,1.45-3.18,2.2-4.61,3.46a12.85,12.85,0,0,1-3.76,1.57.56.56,0,0,1-.67-.42c.5-2.92,2.8-4.6,4.36-6.88a6,6,0,0,1,3.23-2.15c1.25-.52,2.43-1.12,3.66-1.67a.6.6,0,0,1,.76.83Z"/><path class="cls-2" d="M169.3,156.32c-.83,1.47-1.46,3.18-2.28,4.64-.62.93-1.77,1.25-2.63,1.89a9.28,9.28,0,0,1-4.61,2.1.59.59,0,0,1-.67-.5,8.63,8.63,0,0,1,2.5-4.64c.71-.79,1.13-1.91,2.11-2.45a7.08,7.08,0,0,1,1.62-.62c1.1-.38,2.13-.84,3.21-1.25a.6.6,0,0,1,.75.83Z"/><path class="cls-2" d="M176.83,145.54c-1.09,1.67-2,3.56-3.05,5.21-1.29,1.43-3.21,2.14-4.67,3.38a12.55,12.55,0,0,1-3.77,1.5.57.57,0,0,1-.67-.43c.55-2.91,2.87-4.55,4.47-6.8a6,6,0,0,1,3.26-2.09c1.26-.5,2.45-1.07,3.68-1.61a.6.6,0,0,1,.75.84Z"/><path class="cls-2" d="M190.09,148.18c-.83,1.48-1.46,3.18-2.28,4.64-.62.93-1.78,1.25-2.63,1.89a9.19,9.19,0,0,1-4.61,2.1.58.58,0,0,1-.67-.49,8.53,8.53,0,0,1,2.5-4.64c.71-.8,1.13-1.92,2.11-2.45a6.73,6.73,0,0,1,1.61-.62c1.11-.38,2.14-.84,3.21-1.26a.61.61,0,0,1,.76.83Z"/><path class="cls-2" d="M150.39,165c-.83,1.47-1.46,3.18-2.28,4.64-.62.93-1.78,1.25-2.63,1.89a9.28,9.28,0,0,1-4.61,2.1.59.59,0,0,1-.67-.5,8.56,8.56,0,0,1,2.5-4.64c.71-.79,1.13-1.91,2.11-2.45a7.18,7.18,0,0,1,1.61-.62c1.11-.38,2.14-.84,3.21-1.25a.61.61,0,0,1,.76.83Z"/><path class="cls-2" d="M165.67,150.59c-1.07,1.71-1.93,3.66-3,5.36-1.29,1.48-3.21,2.27-4.66,3.57a13.31,13.31,0,0,1-3.79,1.65.57.57,0,0,1-.68-.41c.51-3,2.83-4.7,4.41-7a6.14,6.14,0,0,1,3.25-2.22c1.27-.55,2.46-1.17,3.69-1.75a.6.6,0,0,1,.77.82Z"/><path class="cls-2" d="M159.62,160.85c-.83,1.47-1.46,3.18-2.29,4.64-.61.93-1.77,1.25-2.62,1.89a9.19,9.19,0,0,1-4.61,2.1.59.59,0,0,1-.68-.5,8.68,8.68,0,0,1,2.51-4.64c.71-.79,1.13-1.91,2.11-2.45a7.18,7.18,0,0,1,1.61-.62c1.11-.37,2.14-.83,3.21-1.25a.61.61,0,0,1,.76.83Z"/><path class="cls-2" d="M178.58,158c-.83,1.48-1.46,3.18-2.28,4.64-.62.93-1.78,1.25-2.63,1.89a9.19,9.19,0,0,1-4.61,2.1.59.59,0,0,1-.68-.5,8.61,8.61,0,0,1,2.51-4.63c.71-.8,1.13-1.92,2.11-2.46a6.72,6.72,0,0,1,1.61-.61c1.11-.38,2.14-.84,3.21-1.26a.61.61,0,0,1,.76.83Z"/><path class="cls-2" d="M142.48,163.69c-1,1.29-1.91,2.84-2.94,4.11-.74.8-1.91.9-2.83,1.37a8.84,8.84,0,0,1-4.79,1.21.6.6,0,0,1-.58-.62,8.37,8.37,0,0,1,3.15-4.06c.81-.64,1.39-1.66,2.42-2a6.61,6.61,0,0,1,1.66-.31c1.13-.17,2.2-.43,3.3-.64a.61.61,0,0,1,.61.95Z"/><path class="cls-2" d="M153.41,157.56c-.89,1.41-1.6,3.07-2.48,4.47-.66.89-1.82,1.14-2.7,1.72a9,9,0,0,1-4.67,1.82.6.6,0,0,1-.65-.54,8.47,8.47,0,0,1,2.71-4.46c.74-.74,1.21-1.83,2.21-2.31a7.24,7.24,0,0,1,1.63-.52c1.11-.31,2.16-.7,3.24-1.05a.61.61,0,0,1,.71.87Z"/><path class="cls-2" d="M185.25,139.85c-.56,1.32-.9,2.86-1.44,4.16-.44.83-1.45,1.07-2.13,1.62a6.75,6.75,0,0,1-3.9,1.74.63.63,0,0,1-.7-.56,6.61,6.61,0,0,1,1.66-4.06c.54-.7.76-1.7,1.58-2.16a5.12,5.12,0,0,1,1.38-.5c1-.31,1.83-.68,2.74-1a.63.63,0,0,1,.81.78Z"/><path class="cls-2" d="M167.62,163.92c-.83,1.48-1.46,3.18-2.28,4.64-.62.93-1.77,1.25-2.63,1.89a9.19,9.19,0,0,1-4.61,2.1.59.59,0,0,1-.67-.5,8.53,8.53,0,0,1,2.5-4.63c.71-.8,1.13-1.92,2.11-2.46a6.72,6.72,0,0,1,1.61-.61c1.11-.38,2.14-.84,3.21-1.26a.61.61,0,0,1,.76.83Z"/><path class="cls-2" d="M158.36,167.57c-1,1.71-1.88,3.66-2.93,5.37-1.26,1.49-3.18,2.29-4.61,3.59a12.94,12.94,0,0,1-3.77,1.67.55.55,0,0,1-.68-.4c.47-3,2.78-4.7,4.33-7a6.12,6.12,0,0,1,3.22-2.25c1.26-.55,2.45-1.18,3.67-1.77a.59.59,0,0,1,.77.82Z"/><path class="cls-2" d="M130.91,172.63c-.83,1.48-1.46,3.18-2.28,4.64-.62.94-1.77,1.25-2.63,1.89a9.11,9.11,0,0,1-4.61,2.1.59.59,0,0,1-.67-.49,8.56,8.56,0,0,1,2.5-4.64c.71-.79,1.13-1.92,2.11-2.45a7.18,7.18,0,0,1,1.61-.62c1.11-.38,2.14-.84,3.21-1.25a.6.6,0,0,1,.76.82Z"/><path class="cls-2" d="M140.05,169.48c-.83,1.48-1.46,3.18-2.28,4.64-.62.93-1.77,1.25-2.63,1.89a9.19,9.19,0,0,1-4.61,2.1.59.59,0,0,1-.67-.5,8.6,8.6,0,0,1,2.5-4.63c.71-.8,1.13-1.92,2.11-2.46a6.72,6.72,0,0,1,1.61-.61c1.11-.38,2.14-.84,3.21-1.26a.61.61,0,0,1,.76.83Z"/><path class="cls-2" d="M147.64,173c-.83,1.48-1.46,3.18-2.28,4.64-.62.93-1.77,1.25-2.63,1.89a9.19,9.19,0,0,1-4.61,2.1.59.59,0,0,1-.67-.5,8.6,8.6,0,0,1,2.5-4.63c.71-.8,1.13-1.92,2.11-2.46a6.72,6.72,0,0,1,1.61-.61c1.11-.38,2.14-.84,3.21-1.26a.61.61,0,0,1,.76.83Z"/><path class="cls-2" d="M184.9,158.18c-.2.74-.43,1.43-.6,2.21s-.27,1.47-1,1.72a8.3,8.3,0,0,0-1.79.89,4.92,4.92,0,0,1-2.35.26.74.74,0,0,1-.65-.73,4.21,4.21,0,0,1,1.1-3.09c.4-.49.5-1.33,1.17-1.57a3.55,3.55,0,0,1,1.14-.17c.88.07,3.16-1.09,3,.48Z"/><path class="cls-2" d="M122.55,174.46c-.83,1.47-1.46,3.18-2.28,4.64-.62.93-1.78,1.25-2.63,1.89a9.28,9.28,0,0,1-4.61,2.1.59.59,0,0,1-.67-.5,8.6,8.6,0,0,1,2.5-4.64c.71-.79,1.13-1.91,2.11-2.45a7.18,7.18,0,0,1,1.61-.62c1.11-.38,2.14-.83,3.21-1.25a.61.61,0,0,1,.76.83Z"/><path class="cls-2" d="M128.22,180.86c-.94,1.37-1.71,3-2.65,4.34-.69.85-1.85,1.05-2.74,1.59a8.89,8.89,0,0,1-4.72,1.59.59.59,0,0,1-.62-.57,8.37,8.37,0,0,1,2.86-4.31c.77-.71,1.28-1.77,2.29-2.2a6.48,6.48,0,0,1,1.64-.44c1.12-.26,2.18-.6,3.27-.9a.61.61,0,0,1,.67.9Z"/><path class="cls-2" d="M113.91,176.9c-.76,1.54-1.3,3.31-2.06,4.83-.57,1-1.71,1.39-2.54,2.09a9.57,9.57,0,0,1-4.53,2.44.59.59,0,0,1-.7-.45,8.81,8.81,0,0,1,2.27-4.85c.67-.85,1-2,2-2.61a6.84,6.84,0,0,1,1.59-.74c1.09-.46,2.1-1,3.16-1.49a.61.61,0,0,1,.81.78Z"/><path class="cls-2" d="M108.91,186.13c-.75,1.55-1.3,3.31-2,4.84-.57,1-1.72,1.38-2.54,2.08a9.56,9.56,0,0,1-4.54,2.44.59.59,0,0,1-.7-.45,8.87,8.87,0,0,1,2.27-4.85c.68-.85,1-2,2-2.61a7,7,0,0,1,1.59-.74c1.09-.46,2.11-1,3.17-1.49a.6.6,0,0,1,.8.78Z"/><path class="cls-2" d="M120,182.72c-1.18,1.53-2.18,3.31-3.36,4.82-1.37,1.28-3.29,1.79-4.81,2.86a12,12,0,0,1-3.8,1.11.56.56,0,0,1-.62-.5c.76-2.8,3.12-4.19,4.86-6.24a5.64,5.64,0,0,1,3.33-1.74c1.28-.36,2.48-.81,3.73-1.21a.6.6,0,0,1,.67.9Z"/><path class="cls-2" d="M139,176.9c-.75,1.19-1.32,2.63-2.06,3.81-.56.73-1.58.8-2.34,1.21a6.45,6.45,0,0,1-4.08,1,.63.63,0,0,1-.59-.68,6.48,6.48,0,0,1,2.26-3.67c.63-.59,1-1.53,1.89-1.83a4.78,4.78,0,0,1,1.42-.26c1-.13,1.89-.34,2.84-.51a.63.63,0,0,1,.66.91Z"/><path class="cls-2" d="M132.85,184.58c-.7,1-1.27,2.25-2,3.21-.53.6-1.42.46-2.1.71a5,5,0,0,1-3.62.19.7.7,0,0,1-.47-.85,5,5,0,0,1,2.13-3c.57-.43.94-1.26,1.73-1.38a4.15,4.15,0,0,1,1.26,0c.86.07,1.67,0,2.51.05a.65.65,0,0,1,.53,1Z"/><path class="cls-2" d="M192.84,140.18c-.83,1.47-1.46,3.18-2.29,4.64-.61.93-1.77,1.25-2.62,1.89a9.19,9.19,0,0,1-4.61,2.1.59.59,0,0,1-.68-.5,8.68,8.68,0,0,1,2.51-4.64c.71-.79,1.13-1.91,2.11-2.45a7.18,7.18,0,0,1,1.61-.62c1.11-.38,2.14-.83,3.21-1.25a.61.61,0,0,1,.76.83Z"/><path class="cls-1" d="M190.81,111.6c-1.39-3.38-5.34-4.48-7.12-5-4-1.1-7.34-.2-10.53.69-3.55,1-4.63,1.91-11.45,5.22-3.22,1.56-6.33,3.06-9.91,4.51-7.22,2.93-8,2.25-14.94,4.94-6.75,2.62-6.08,3.29-13.16,6-4.93,1.89-9.9,3.34-13,4.25-7.47,2.18-8.57,2.09-11.17,3.79-3.28,2.13-5.19,4.56-7.59,7.94-2.28,3.21-2.45,4.48-2.48,5.24,0,1.89.7,4.38,2.54,5.57,1.41.92,2.92.73,9.71-1.17,5.38-1.51,8.07-2.26,10.71-3.24,6.35-2.35,5.88-2.87,9.94-4.16,4.38-1.4,4.91-.78,13.36-2.34a86.55,86.55,0,0,0,12.42-2.9c.47-.16.52-.18,11.66-4.76,4.43-1.82,5.8-2.38,8-3.44,3.43-1.68,3.07-1.78,7.06-3.78,3.77-1.89,5.18-2.35,8.53-4.26a22.93,22.93,0,0,0,4-2.59C189.69,120,192.41,115.47,190.81,111.6Z"/><path class="cls-2" d="M178,114.56c-1.13,1.55-2.08,3.32-3.2,4.85-1.32,1.31-3.2,1.9-4.66,3a12.12,12.12,0,0,1-3.71,1.26.54.54,0,0,1-.62-.45c.69-2.77,3-4.23,4.66-6.31a5.77,5.77,0,0,1,3.23-1.85c1.24-.41,2.41-.9,3.62-1.35a.57.57,0,0,1,.68.84Z"/><path class="cls-2" d="M166.06,121c-.89,1.36-1.61,3-2.5,4.3-.66.85-1.78,1.08-2.64,1.63a8.9,8.9,0,0,1-4.57,1.71.57.57,0,0,1-.61-.52,8.22,8.22,0,0,1,2.71-4.28c.74-.72,1.21-1.77,2.19-2.21a6.42,6.42,0,0,1,1.59-.49c1.08-.29,2.1-.66,3.16-1a.59.59,0,0,1,.67.85Z"/><path class="cls-2" d="M174,111.17c-1.15,1.52-2.12,3.28-3.27,4.79-1.34,1.28-3.22,1.84-4.7,2.93a12.39,12.39,0,0,1-3.72,1.19.56.56,0,0,1-.62-.46c.73-2.76,3.06-4.18,4.75-6.23a5.77,5.77,0,0,1,3.26-1.79c1.25-.39,2.43-.86,3.64-1.29a.58.58,0,0,1,.66.86Z"/><path class="cls-2" d="M186.55,114.59c-.9,1.36-1.61,3-2.5,4.3-.66.85-1.79,1.08-2.65,1.63a8.86,8.86,0,0,1-4.56,1.71.58.58,0,0,1-.62-.52,8.37,8.37,0,0,1,2.72-4.29c.73-.71,1.21-1.76,2.19-2.2a6.48,6.48,0,0,1,1.58-.49c1.09-.29,2.11-.66,3.17-1a.59.59,0,0,1,.67.85Z"/><path class="cls-2" d="M147.34,128.06c-.9,1.36-1.62,2.95-2.5,4.3-.66.85-1.79,1.08-2.65,1.63a8.86,8.86,0,0,1-4.57,1.71.57.57,0,0,1-.61-.52,8.3,8.3,0,0,1,2.72-4.28c.73-.72,1.21-1.77,2.19-2.21a6.48,6.48,0,0,1,1.58-.49c1.09-.29,2.11-.66,3.17-1a.59.59,0,0,1,.67.85Z"/><path class="cls-2" d="M163,115.26c-1.14,1.57-2.09,3.38-3.23,4.94-1.33,1.34-3.23,2-4.71,3.11a12.65,12.65,0,0,1-3.74,1.33.53.53,0,0,1-.62-.44c.68-2.81,3-4.31,4.69-6.43a5.92,5.92,0,0,1,3.27-1.92c1.25-.44,2.44-.95,3.66-1.43a.57.57,0,0,1,.68.84Z"/><path class="cls-2" d="M156.47,124.7c-.9,1.36-1.62,3-2.5,4.3-.66.85-1.79,1.08-2.65,1.63a8.86,8.86,0,0,1-4.56,1.71.58.58,0,0,1-.62-.52,8.3,8.3,0,0,1,2.72-4.28c.73-.72,1.21-1.77,2.19-2.21a6.48,6.48,0,0,1,1.58-.49c1.09-.29,2.11-.66,3.17-1a.59.59,0,0,1,.67.85Z"/><path class="cls-2" d="M174.85,123.21c-.89,1.36-1.61,3-2.5,4.29-.66.86-1.79,1.09-2.65,1.64a8.86,8.86,0,0,1-4.56,1.71.57.57,0,0,1-.61-.52,8.29,8.29,0,0,1,2.71-4.29c.73-.71,1.21-1.76,2.19-2.21a6.87,6.87,0,0,1,1.59-.48c1.08-.29,2.1-.66,3.16-1a.58.58,0,0,1,.67.85Z"/><path class="cls-2" d="M137.87,125.06c-.9,1.36-1.62,2.95-2.51,4.3-.65.85-1.78,1.08-2.64,1.63a8.86,8.86,0,0,1-4.57,1.71.57.57,0,0,1-.61-.52,8.29,8.29,0,0,1,2.71-4.28c.74-.72,1.22-1.77,2.19-2.21a6.56,6.56,0,0,1,1.59-.49c1.09-.29,2.11-.66,3.16-1a.59.59,0,0,1,.68.85Z"/><path class="cls-2" d="M150.38,120.29c-.89,1.36-1.61,2.95-2.5,4.3-.65.85-1.78,1.08-2.64,1.63a8.9,8.9,0,0,1-4.57,1.71.56.56,0,0,1-.61-.52,8.29,8.29,0,0,1,2.71-4.28c.74-.72,1.21-1.77,2.19-2.21a6.56,6.56,0,0,1,1.59-.49c1.09-.29,2.11-.66,3.16-1a.59.59,0,0,1,.67.85Z"/><path class="cls-2" d="M182.92,107.27c-.62,1.23-1,2.68-1.66,3.89-.48.77-1.46.94-2.15,1.42a6.52,6.52,0,0,1-3.86,1.4.59.59,0,0,1-.63-.58,6.31,6.31,0,0,1,1.86-3.78c.56-.63.85-1.59,1.66-2a5,5,0,0,1,1.36-.39c.93-.23,1.8-.53,2.7-.79a.6.6,0,0,1,.72.8Z"/><path class="cls-2" d="M163.94,128.18c-.9,1.36-1.61,2.95-2.5,4.3-.66.85-1.79,1.08-2.65,1.64a8.85,8.85,0,0,1-4.56,1.7.56.56,0,0,1-.61-.52,8.22,8.22,0,0,1,2.71-4.28c.73-.72,1.21-1.76,2.19-2.21a6.48,6.48,0,0,1,1.58-.49c1.09-.29,2.11-.66,3.17-1a.58.58,0,0,1,.67.84Z"/><path class="cls-2" d="M154.82,131.06c-1.13,1.58-2.06,3.39-3.18,4.95-1.31,1.35-3.2,2-4.67,3.14a12.55,12.55,0,0,1-3.72,1.36.55.55,0,0,1-.63-.44c.65-2.81,3-4.33,4.62-6.46a5.88,5.88,0,0,1,3.25-1.93c1.24-.45,2.42-1,3.64-1.46a.58.58,0,0,1,.69.84Z"/><path class="cls-2" d="M128.14,134.08c-.9,1.36-1.61,2.95-2.5,4.3-.66.85-1.79,1.08-2.65,1.64a8.85,8.85,0,0,1-4.56,1.7.57.57,0,0,1-.62-.52,8.3,8.3,0,0,1,2.72-4.28c.73-.72,1.21-1.76,2.19-2.21a6.48,6.48,0,0,1,1.58-.49c1.09-.29,2.11-.66,3.17-1a.58.58,0,0,1,.67.84Z"/><path class="cls-2" d="M137.12,131.67c-.9,1.36-1.61,3-2.5,4.3-.66.85-1.79,1.08-2.65,1.63a8.86,8.86,0,0,1-4.56,1.71.58.58,0,0,1-.62-.52,8.37,8.37,0,0,1,2.72-4.29c.73-.71,1.21-1.76,2.19-2.21a6.94,6.94,0,0,1,1.58-.48c1.09-.29,2.11-.66,3.17-1a.59.59,0,0,1,.67.85Z"/><path class="cls-2" d="M144.16,135.55c-.89,1.36-1.61,2.95-2.5,4.3-.65.85-1.78,1.08-2.64,1.64a8.88,8.88,0,0,1-4.57,1.7.56.56,0,0,1-.61-.52,8.29,8.29,0,0,1,2.71-4.28c.74-.71,1.21-1.76,2.19-2.21a7,7,0,0,1,1.59-.49c1.09-.29,2.11-.66,3.16-1a.58.58,0,0,1,.67.84Z"/><path class="cls-2" d="M120.33,131.41c-.89,1.36-1.61,3-2.5,4.3-.66.85-1.78,1.08-2.65,1.63a8.86,8.86,0,0,1-4.56,1.71.56.56,0,0,1-.61-.52,8.22,8.22,0,0,1,2.71-4.28c.74-.72,1.21-1.77,2.19-2.21a6.42,6.42,0,0,1,1.59-.49c1.08-.29,2.1-.66,3.16-1a.59.59,0,0,1,.67.85Z"/><path class="cls-2" d="M117.66,138.4c-.89,1.36-1.61,2.95-2.5,4.29-.66.86-1.78,1.08-2.65,1.64A8.86,8.86,0,0,1,108,146a.57.57,0,0,1-.61-.52,8.29,8.29,0,0,1,2.71-4.29c.74-.71,1.21-1.76,2.19-2.21a6.87,6.87,0,0,1,1.59-.48c1.08-.29,2.1-.66,3.16-1a.58.58,0,0,1,.67.85Z"/><path class="cls-2" d="M125,141.79c-1,1.25-1.84,2.75-2.83,4-.72.77-1.85.88-2.75,1.34a8.64,8.64,0,0,1-4.63,1.21.57.57,0,0,1-.56-.59,8.06,8.06,0,0,1,3-3.94c.78-.63,1.34-1.62,2.34-2a6.31,6.31,0,0,1,1.6-.31c1.1-.18,2.13-.44,3.2-.65a.59.59,0,0,1,.59.91Z"/><path class="cls-2" d="M109.56,135c-.83,1.43-1.47,3.09-2.29,4.5-.62.9-1.74,1.21-2.58,1.83a9.19,9.19,0,0,1-4.52,2,.58.58,0,0,1-.64-.48,8.51,8.51,0,0,1,2.51-4.5c.7-.77,1.13-1.86,2.09-2.37a6.4,6.4,0,0,1,1.57-.6c1.08-.37,2.09-.82,3.14-1.22a.58.58,0,0,1,.72.8Z"/><path class="cls-2" d="M104.21,144.08c-.83,1.43-1.47,3.08-2.29,4.5-.62.9-1.74,1.21-2.58,1.83a9.16,9.16,0,0,1-4.51,2,.58.58,0,0,1-.65-.48,8.54,8.54,0,0,1,2.51-4.5c.7-.77,1.13-1.86,2.09-2.38a6.73,6.73,0,0,1,1.58-.6c1.07-.36,2.08-.81,3.13-1.21a.58.58,0,0,1,.72.8Z"/><path class="cls-2" d="M114,146c-1.23,1.39-2.31,3-3.54,4.4-1.4,1.14-3.28,1.5-4.8,2.43a11.84,11.84,0,0,1-3.72.8.54.54,0,0,1-.57-.52c.92-2.63,3.28-3.81,5.09-5.66a5.45,5.45,0,0,1,3.31-1.45c1.24-.26,2.43-.61,3.65-.91a.57.57,0,0,1,.58.91Z"/><path class="cls-2" d="M135.64,138.71c-.8,1.1-1.45,2.44-2.23,3.52-.59.67-1.57.66-2.32,1a6.31,6.31,0,0,1-4,.7.6.6,0,0,1-.52-.69,6.16,6.16,0,0,1,2.42-3.37c.64-.52,1.07-1.4,1.93-1.63a5,5,0,0,1,1.38-.15c.95-.06,1.84-.2,2.76-.3a.6.6,0,0,1,.57.91Z"/><path class="cls-2" d="M129.23,128.2c-.82,1.13-1.5,2.51-2.32,3.63-.6.69-1.62.71-2.39,1.09a6.64,6.64,0,0,1-4.11.84.61.61,0,0,1-.54-.66,6.6,6.6,0,0,1,2.51-3.51c.67-.55,1.12-1.45,2-1.71a5.37,5.37,0,0,1,1.43-.2c1-.09,1.89-.26,2.84-.39a.59.59,0,0,1,.58.91Z"/><path class="cls-1" d="M181.83,203.76c.29,2.62,2.82,4.82,5.18,5.51,1.43.42,2.67.22,5.16-.2,3.06-.51,3.31-1.13,6.08-1.49,2.05-.27,2.05,0,5-.21,2.57-.22,3.32-.52,5.16-.75,3.36-.41,3.87.27,8.11.34,5.27.09,5.45-1,9.77-.58a25.14,25.14,0,0,1,6.83,1.45c3.88,1.43,4,2.66,7,3.29,2.79.6,3-.41,7.19-.2a35.15,35.15,0,0,1,8.3,1.63c3.48,1,3.31,1.22,6.64,2.19,4.5,1.3,6.95,2,10.15,1.81,4.11-.31,3.91-2.15,8.29-2.24.84,0,2.45.13,5.66.43a44.94,44.94,0,0,1,4.71.57c3.07.63,3.59,1.34,4.33.94,1.44-.78.17-3.83.56-8.66.51-6.24,3.31-9.45,1.89-10.73-.66-.59-1.52-.17-4.52.38-3.94.71-6.51,1.17-9.36.83-3.15-.38-5.32-1.55-9-1.81a44.47,44.47,0,0,0-6.46.2,67.08,67.08,0,0,1-14.75-1.05,54.39,54.39,0,0,1-11.81-3.28c-2.66-1.12-5-2.39-8.49-2.37-2.17,0-3.11.5-5.16.94-5.29,1.12-7.49-.38-13.83-.69a52.51,52.51,0,0,0-12.72,1.14c-6.11,1.06-9.87,1.75-13.82,4.47C185.56,197.23,181.41,200.09,181.83,203.76Z"/><path class="cls-2" d="M195.54,202.67c1.81-1,3.54-2.36,5.33-3.37,1.89-.7,4-.44,5.95-.89a13.24,13.24,0,0,1,4.22.41.59.59,0,0,1,.41.72c-1.91,2.44-4.85,2.84-7.41,4.16a6.22,6.22,0,0,1-4,.38c-1.41-.14-2.79-.18-4.19-.28a.62.62,0,0,1-.29-1.13Z"/><path class="cls-2" d="M210.22,201.64c1.49-.94,2.91-2.19,4.39-3.13,1-.55,2.24-.27,3.34-.43a9.54,9.54,0,0,1,5.27.35.62.62,0,0,1,.38.79,9,9,0,0,1-4.59,3c-1,.37-2,1.2-3.15,1.2a7.09,7.09,0,0,1-1.79-.23c-1.2-.19-2.38-.28-3.57-.43a.64.64,0,0,1-.28-1.14Z"/><path class="cls-2" d="M187.12,198.83c1.49-.94,2.91-2.2,4.39-3.13,1-.55,2.24-.27,3.34-.44a9.64,9.64,0,0,1,5.27.36.6.6,0,0,1,.37.78,9,9,0,0,1-4.59,3c-1,.37-2,1.2-3.15,1.2a7,7,0,0,1-1.78-.23c-1.2-.2-2.38-.29-3.57-.44a.63.63,0,0,1-.28-1.13Z"/><path class="cls-2" d="M231.87,203c1.49-.95,2.91-2.2,4.39-3.13,1-.55,2.25-.27,3.34-.44a9.67,9.67,0,0,1,5.28.35.62.62,0,0,1,.37.79,9,9,0,0,1-4.59,3c-1,.38-2,1.2-3.15,1.21a7.09,7.09,0,0,1-1.79-.23c-1.2-.2-2.37-.29-3.56-.44a.63.63,0,0,1-.29-1.13Z"/><path class="cls-2" d="M221.35,202.27c1.49-.94,2.91-2.2,4.39-3.13,1-.55,2.24-.27,3.34-.44a9.67,9.67,0,0,1,5.28.36.62.62,0,0,1,.37.79,9,9,0,0,1-4.59,3c-1,.37-2,1.2-3.15,1.2a7.09,7.09,0,0,1-1.79-.23c-1.2-.2-2.37-.29-3.56-.44a.63.63,0,0,1-.29-1.13Z"/><path class="cls-2" d="M202.52,195.54c1.49-.95,2.91-2.2,4.39-3.13,1-.55,2.25-.27,3.35-.44a9.64,9.64,0,0,1,5.27.35.62.62,0,0,1,.37.79,8.91,8.91,0,0,1-4.59,3c-1.05.38-2,1.2-3.15,1.21a7.09,7.09,0,0,1-1.79-.23c-1.2-.2-2.37-.29-3.56-.44a.63.63,0,0,1-.29-1.13Z"/><path class="cls-2" d="M238.37,208.81c1.5-.75,3-1.83,4.47-2.58,1-.42,2.15,0,3.21,0a8.83,8.83,0,0,1,4.95,1,.62.62,0,0,1,.27.84,8.4,8.4,0,0,1-4.65,2.43c-1,.25-2,1-3.1.82a6.6,6.6,0,0,1-1.66-.44c-1.12-.34-2.22-.57-3.33-.86a.64.64,0,0,1-.16-1.16Z"/><path class="cls-2" d="M182.85,204.82c1.16-.94,2.23-2.18,3.38-3.1.81-.55,1.85-.27,2.75-.44a7,7,0,0,1,4.44.33.67.67,0,0,1,.37.86,6.89,6.89,0,0,1-3.54,2.91c-.83.37-1.54,1.19-2.52,1.2a5.52,5.52,0,0,1-1.51-.22c-1-.2-2-.28-3-.42a.65.65,0,0,1-.35-1.12Z"/><path class="cls-2" d="M215.52,195.5c1.49-.95,2.91-2.2,4.39-3.13,1-.55,2.25-.28,3.35-.44a9.64,9.64,0,0,1,5.27.35.62.62,0,0,1,.37.79,9,9,0,0,1-4.59,3c-1.05.38-2,1.2-3.15,1.21a8.14,8.14,0,0,1-1.79-.23c-1.2-.2-2.37-.29-3.56-.44a.63.63,0,0,1-.29-1.13Z"/><path class="cls-2" d="M225.82,196.73c1.81-1.06,3.55-2.43,5.35-3.48,1.9-.75,4.05-.53,6-1a13.45,13.45,0,0,1,4.28.32.58.58,0,0,1,.43.71c-1.9,2.49-4.87,3-7.45,4.32a6.38,6.38,0,0,1-4.07.47c-1.43-.12-2.83-.13-4.24-.19a.62.62,0,0,1-.31-1.13Z"/><path class="cls-2" d="M253.53,205.65c1.49-.94,2.91-2.2,4.39-3.13,1-.55,2.24-.27,3.34-.44a9.54,9.54,0,0,1,5.27.36.61.61,0,0,1,.38.78,8.94,8.94,0,0,1-4.6,3c-1,.38-2,1.2-3.15,1.21a7,7,0,0,1-1.78-.23c-1.2-.2-2.38-.29-3.57-.44a.63.63,0,0,1-.28-1.13Z"/><path class="cls-2" d="M243.58,204c1.49-.94,2.91-2.19,4.39-3.13,1-.54,2.24-.27,3.34-.43a9.64,9.64,0,0,1,5.27.35.63.63,0,0,1,.38.79,9.06,9.06,0,0,1-4.6,3c-1,.38-2,1.2-3.15,1.2a7.47,7.47,0,0,1-1.78-.22c-1.2-.2-2.38-.29-3.57-.44a.64.64,0,0,1-.28-1.14Z"/><path class="cls-2" d="M238.28,197.38c1.07-.77,2.09-1.79,3.15-2.55.73-.44,1.61-.22,2.4-.35a6,6,0,0,1,3.78.29.51.51,0,0,1,.26.64,6.48,6.48,0,0,1-3.29,2.46c-.75.3-1.42,1-2.26,1a4.57,4.57,0,0,1-1.28-.19c-.86-.16-1.7-.24-2.56-.36a.53.53,0,0,1-.2-.92Z"/><path class="cls-2" d="M260.05,211.77c1.49-.94,2.91-2.19,4.39-3.13,1-.55,2.24-.27,3.34-.43a9.54,9.54,0,0,1,5.27.35.63.63,0,0,1,.38.79,9.06,9.06,0,0,1-4.6,3c-1,.37-2,1.2-3.15,1.2a7,7,0,0,1-1.78-.23c-1.2-.19-2.38-.28-3.57-.43a.64.64,0,0,1-.28-1.14Z"/><path class="cls-2" d="M265.8,206.06c1.49-.94,2.91-2.2,4.39-3.13,1-.55,2.25-.27,3.35-.43a9.55,9.55,0,0,1,5.27.35.61.61,0,0,1,.37.79,9,9,0,0,1-4.59,3c-1,.37-2,1.2-3.15,1.2a7,7,0,0,1-1.78-.23c-1.21-.19-2.38-.28-3.57-.43a.64.64,0,0,1-.29-1.14Z"/><path class="cls-2" d="M260.06,199.43c1.54-.79,3.05-1.89,4.58-2.67,1.05-.45,2.22,0,3.31-.11a9.21,9.21,0,0,1,5.11.88.61.61,0,0,1,.29.82,8.72,8.72,0,0,1-4.76,2.55c-1,.27-2,1-3.19.88a6.57,6.57,0,0,1-1.72-.4c-1.16-.32-2.3-.52-3.44-.79a.64.64,0,0,1-.18-1.16Z"/><path class="cls-2" d="M271.35,212.29c1.46-1,2.83-2.39,4.27-3.42,1-.62,2.27-.42,3.37-.66a9.89,9.89,0,0,1,5.37,0,.62.62,0,0,1,.42.76,9.24,9.24,0,0,1-4.48,3.33c-1,.44-1.95,1.33-3.13,1.41a7.1,7.1,0,0,1-1.82-.11c-1.23-.12-2.43-.13-3.64-.2a.63.63,0,0,1-.36-1.11Z"/><path class="cls-2" d="M281.63,206.45c1.46-1,2.82-2.39,4.27-3.42,1-.62,2.26-.42,3.37-.66a9.89,9.89,0,0,1,5.37,0,.61.61,0,0,1,.42.75,9.21,9.21,0,0,1-4.49,3.33c-1,.45-1.94,1.33-3.12,1.41a7.17,7.17,0,0,1-1.83-.11c-1.23-.11-2.42-.13-3.64-.2a.62.62,0,0,1-.35-1.11Z"/><path class="cls-2" d="M272.82,200.19c1.84-.82,3.64-2,5.46-2.77,1.9-.5,3.92,0,5.83-.25a12.79,12.79,0,0,1,4,.86.6.6,0,0,1,.33.77c-2.08,2.19-4.94,2.3-7.55,3.33a5.93,5.93,0,0,1-3.92-.06c-1.35-.29-2.68-.48-4-.72a.62.62,0,0,1-.17-1.16Z"/><path class="cls-2" d="M248.18,197.72c1.28-.72,2.52-1.76,3.78-2.47.88-.4,1.84,0,2.74,0a6.84,6.84,0,0,1,4.25,1.08.67.67,0,0,1,.21.92,6.74,6.74,0,0,1-3.89,2.26c-.87.22-1.69.9-2.64.75a5.24,5.24,0,0,1-1.43-.48c-1-.36-1.91-.61-2.86-.93a.66.66,0,0,1-.16-1.16Z"/><path class="cls-2" d="M252.24,209.78c1-.68,2-1.67,3.08-2.34.72-.37,1.52.11,2.26.13a5.12,5.12,0,0,1,3.5,1.23.72.72,0,0,1,.12,1,5,5,0,0,1-3.12,2c-.71.19-1.37.85-2.16.66a3.78,3.78,0,0,1-1.18-.52c-.8-.4-1.58-.68-2.37-1a.68.68,0,0,1-.13-1.16Z"/><path class="cls-2" d="M283.43,212.44c1.13-.8,2.18-1.84,3.29-2.63a7.85,7.85,0,0,1,2.59-.51,7.62,7.62,0,0,1,4.13,0,.47.47,0,0,1,.33.58,7.08,7.08,0,0,1-3.45,2.56,8.06,8.06,0,0,1-2.41,1.09,5.62,5.62,0,0,1-1.4-.09c-.95-.09-1.87-.1-2.8-.15a.49.49,0,0,1-.28-.86Z"/><path class="cls-2" d="M288.68,200.63c.91-.57,1.77-1.32,2.67-1.89a7.14,7.14,0,0,1,2.11-.37,7.07,7.07,0,0,1,3.36,0,.33.33,0,0,1,.26.42,5.74,5.74,0,0,1-2.8,1.85,6.54,6.54,0,0,1-2,.78,4.44,4.44,0,0,1-1.14-.06c-.77-.06-1.52-.07-2.28-.11a.34.34,0,0,1-.22-.62Z"/><path class="cls-1" d="M109.51,113.65c.88-2.49-.44-5.57-2.26-7.22-1.11-1-2.31-1.36-4.73-2.07-3-.87-3.47-.43-6.13-1.3-2-.65-1.82-.94-4.56-2-2.42-.92-3.22-1-5-1.57-3.2-1.09-3.36-1.93-7.15-3.84-4.71-2.38-5.32-1.52-9-3.73a25.55,25.55,0,0,1-5.51-4.28c-2.87-3-2.48-4.16-4.88-6s-2.9-.94-6.57-2.94a35.43,35.43,0,0,1-6.76-5.09c-2.71-2.38-2.44-2.54-5-4.87-3.47-3.12-5.35-4.87-8.34-6-3.83-1.5-4.46.24-8.44-1.59-.76-.35-2.14-1.19-4.91-2.86-2.06-1.25-3.11-1.89-4-2.56-2.48-1.91-2.64-2.77-3.48-2.73-1.64.07-1.82,3.37-4.28,7.55-3.18,5.39-7.1,7.06-6.37,8.84.33.81,1.29.81,4.23,1.62,3.85,1.08,6.37,1.78,8.79,3.33,2.67,1.71,4.1,3.71,7.34,5.57a44.48,44.48,0,0,0,5.9,2.63,67.46,67.46,0,0,1,12.82,7.38A53.76,53.76,0,0,1,50.38,98c1.9,2.16,3.44,4.31,6.6,5.83,2,.93,3,.9,5.06,1.4,5.25,1.3,6.57,3.6,12.15,6.65a52.82,52.82,0,0,0,12,4.51c6,1.7,9.64,2.72,14.38,2C103.3,117.9,108.29,117.13,109.51,113.65Z"/><path class="cls-2" d="M96.69,108.65c-2.07.14-4.2.58-6.26.71-2-.19-3.8-1.34-5.74-1.79a13.06,13.06,0,0,1-3.62-2.21.59.59,0,0,1-.06-.83c2.78-1.35,5.6-.44,8.48-.51a6.26,6.26,0,0,1,3.79,1.41c1.2.74,2.43,1.38,3.65,2.08a.62.62,0,0,1-.24,1.14Z"/><path class="cls-2" d="M83,103.18c-1.76.2-3.58.71-5.32.91-1.16,0-2.14-.74-3.2-1.07a9.64,9.64,0,0,1-4.59-2.61.61.61,0,0,1,0-.87,8.93,8.93,0,0,1,5.45-.72c1.1.11,2.3-.22,3.36.29a7.14,7.14,0,0,1,1.5,1c1,.7,2,1.29,3,2a.63.63,0,0,1-.23,1.14Z"/><path class="cls-2" d="M102.61,115.78c-1.76.2-3.58.71-5.32.9-1.16,0-2.14-.73-3.2-1.06A9.66,9.66,0,0,1,89.5,113a.61.61,0,0,1,0-.87,9.07,9.07,0,0,1,5.45-.72c1.1.12,2.3-.21,3.36.29a7.56,7.56,0,0,1,1.5,1c1,.71,2,1.3,3,1.95a.64.64,0,0,1-.23,1.15Z"/><path class="cls-2" d="M64.15,92.5c-1.75.2-3.58.71-5.32.91-1.16,0-2.13-.74-3.2-1.07A9.56,9.56,0,0,1,51,89.73a.62.62,0,0,1,0-.87,8.93,8.93,0,0,1,5.45-.72c1.11.12,2.31-.22,3.36.29a7.2,7.2,0,0,1,1.51,1c1,.7,2,1.29,3,2a.63.63,0,0,1-.24,1.14Z"/><path class="cls-2" d="M73.29,97.77c-1.75.2-3.58.71-5.32.9-1.16,0-2.13-.73-3.2-1.06A9.66,9.66,0,0,1,60.18,95a.62.62,0,0,1,0-.87,9.07,9.07,0,0,1,5.45-.72c1.11.12,2.31-.21,3.36.29a7.2,7.2,0,0,1,1.51,1c1,.71,2,1.3,3,2a.64.64,0,0,1-.24,1.15Z"/><path class="cls-2" d="M87.3,112c-1.75.2-3.57.71-5.31.9-1.17,0-2.14-.73-3.2-1.06a9.64,9.64,0,0,1-4.59-2.61.63.63,0,0,1,0-.88,9,9,0,0,1,5.45-.71c1.11.11,2.31-.22,3.36.28a7,7,0,0,1,1.51,1c1,.7,2,1.29,3,1.94A.63.63,0,0,1,87.3,112Z"/><path class="cls-2" d="M60.82,84.46c-1.68,0-3.48.36-5.15.38-1.11-.07-1.93-.94-2.9-1.37a8.86,8.86,0,0,1-4-3,.63.63,0,0,1,.13-.88,8.38,8.38,0,0,1,5.23-.17c1,.23,2.22,0,3.15.62a6.19,6.19,0,0,1,1.31,1.12c.86.79,1.75,1.48,2.63,2.22a.64.64,0,0,1-.37,1.11Z"/><path class="cls-2" d="M109.05,112.25c-1.45.33-3,1-4.38,1.31-1,.14-1.79-.56-2.68-.8a7.06,7.06,0,0,1-3.85-2.23.66.66,0,0,1,0-.93,6.86,6.86,0,0,1,4.44-1.08c.92,0,1.91-.4,2.79,0a5.42,5.42,0,0,1,1.27.85c.84.62,1.69,1.13,2.54,1.7a.66.66,0,0,1-.18,1.16Z"/><path class="cls-2" d="M75.58,106.4c-1.75.2-3.57.71-5.31.91-1.17,0-2.14-.73-3.2-1.06a9.66,9.66,0,0,1-4.59-2.62.62.62,0,0,1,0-.87,9,9,0,0,1,5.45-.72c1.11.12,2.31-.21,3.36.29a7,7,0,0,1,1.51,1c1,.7,2,1.3,3,2a.63.63,0,0,1-.24,1.14Z"/><path class="cls-2" d="M66.85,100.81c-2.09.16-4.25.64-6.33.8-2-.16-3.88-1.29-5.85-1.7A13.48,13.48,0,0,1,51,97.75a.58.58,0,0,1-.07-.82c2.79-1.41,5.67-.53,8.58-.65a6.42,6.42,0,0,1,3.87,1.36c1.23.72,2.49,1.34,3.74,2a.62.62,0,0,1-.22,1.15Z"/><path class="cls-2" d="M45.8,80.71c-1.75.2-3.58.71-5.32.9-1.16,0-2.13-.73-3.2-1.06a9.66,9.66,0,0,1-4.59-2.62.62.62,0,0,1,0-.87,9.07,9.07,0,0,1,5.45-.72c1.1.12,2.31-.21,3.36.29a7.26,7.26,0,0,1,1.51,1c1,.7,2,1.29,3,1.94a.64.64,0,0,1-.24,1.15Z"/><path class="cls-2" d="M54.05,86.51c-1.76.2-3.58.71-5.32.9-1.16,0-2.14-.73-3.2-1.06a9.66,9.66,0,0,1-4.59-2.62.62.62,0,0,1,0-.87,9,9,0,0,1,5.45-.72c1.1.12,2.31-.21,3.36.29a7.47,7.47,0,0,1,1.51,1c1,.71,2,1.3,3,2a.64.64,0,0,1-.23,1.15Z"/><path class="cls-2" d="M55.92,94.79c-1.3.23-2.66.7-3.94.93-.86.08-1.55-.51-2.32-.73a6.13,6.13,0,0,1-3.27-1.91.51.51,0,0,1,0-.69,6.39,6.39,0,0,1,4-.78c.81,0,1.71-.26,2.46.1a4.52,4.52,0,0,1,1.07.73c.71.52,1.43,1,2.15,1.43a.53.53,0,0,1-.22.92Z"/><path class="cls-2" d="M42.6,72.36c-1.75.19-3.58.7-5.32.9-1.16,0-2.14-.73-3.2-1.06a9.66,9.66,0,0,1-4.59-2.62.62.62,0,0,1,0-.87A9,9,0,0,1,35,68c1.1.12,2.31-.21,3.36.29a7.2,7.2,0,0,1,1.51,1c1,.7,2,1.3,3,1.95a.64.64,0,0,1-.24,1.15Z"/><path class="cls-2" d="M34.93,75c-1.75.2-3.58.71-5.32.9-1.16,0-2.14-.73-3.2-1.06a9.66,9.66,0,0,1-4.59-2.62.62.62,0,0,1,0-.87,9.07,9.07,0,0,1,5.45-.72c1.1.12,2.31-.21,3.36.29a7.62,7.62,0,0,1,1.51,1c1,.71,2,1.3,3,2A.64.64,0,0,1,34.93,75Z"/><path class="cls-2" d="M37.21,83.46c-1.73,0-3.57.38-5.29.41-1.14-.06-2-.92-3-1.35a9.31,9.31,0,0,1-4.23-3,.63.63,0,0,1,.1-.87,8.78,8.78,0,0,1,5.4-.22c1.07.22,2.28,0,3.25.59a7.14,7.14,0,0,1,1.38,1.12c.9.79,1.84,1.47,2.76,2.21a.64.64,0,0,1-.35,1.12Z"/><path class="cls-2" d="M32.65,67c-1.77.3-3.59.92-5.34,1.21-1.18.12-2.22-.6-3.32-.87A9.88,9.88,0,0,1,19.16,65a.63.63,0,0,1-.05-.87,9.25,9.25,0,0,1,5.49-1c1.13,0,2.33-.35,3.43.09a7.2,7.2,0,0,1,1.59.89c1.06.65,2.13,1.18,3.19,1.77A.63.63,0,0,1,32.65,67Z"/><path class="cls-2" d="M20.85,67.75c-1.76.3-3.58.91-5.33,1.21-1.18.11-2.22-.61-3.32-.87a9.94,9.94,0,0,1-4.83-2.35.6.6,0,0,1,0-.86,9.17,9.17,0,0,1,5.49-1c1.13,0,2.33-.35,3.43.09a7.68,7.68,0,0,1,1.59.89C18.89,65.46,20,66,21,66.59a.63.63,0,0,1-.17,1.16Z"/><path class="cls-2" d="M26.05,77.22c-2-.07-4.13.18-6.12.11C18,77,16.4,75.64,14.57,75a12.5,12.5,0,0,1-3.25-2.53.6.6,0,0,1,0-.84c2.83-1.06,5.45.09,8.25.3a5.91,5.91,0,0,1,3.51,1.76c1.08.85,2.2,1.6,3.29,2.4a.62.62,0,0,1-.35,1.12Z"/><path class="cls-2" d="M47.16,90.17c-1.47.1-3,.49-4.48.58-1,0-1.64-.84-2.46-1.22a6.87,6.87,0,0,1-3.35-2.83.66.66,0,0,1,.21-.91,6.68,6.68,0,0,1,4.49-.34c.88.18,1.91-.08,2.7.47A5.14,5.14,0,0,1,45.35,87c.71.74,1.45,1.38,2.17,2.08a.65.65,0,0,1-.36,1.11Z"/><path class="cls-2" d="M48.76,77.55c-1.23.16-2.58.61-3.79.76-.82,0-1.32-.76-2-1.1a5.06,5.06,0,0,1-2.62-2.63.74.74,0,0,1,.33-1,5.11,5.11,0,0,1,3.69-.46c.72.14,1.6-.16,2.23.36a3.73,3.73,0,0,1,.84,1c.54.7,1.12,1.3,1.68,2a.69.69,0,0,1-.38,1.11Z"/><path class="cls-2" d="M21.84,61.57c-1.36.23-2.76.7-4.11.93a7.82,7.82,0,0,1-2.55-.67A7.7,7.7,0,0,1,11.46,60a.48.48,0,0,1,0-.67,7.1,7.1,0,0,1,4.23-.8,7.73,7.73,0,0,1,2.63.07,5.53,5.53,0,0,1,1.23.68c.81.5,1.64.91,2.46,1.37a.49.49,0,0,1-.13.89Z"/><path class="cls-2" d="M12,69.91c-1.07.12-2.17.42-3.23.54a7.23,7.23,0,0,1-2.06-.59,7,7,0,0,1-3-1.46.35.35,0,0,1-.05-.5,5.83,5.83,0,0,1,3.33-.44,6.77,6.77,0,0,1,2.1.15,5.2,5.2,0,0,1,1,.55c.66.4,1.34.73,2,1.09a.35.35,0,0,1-.07.66Z"/></g></svg>