<svg xmlns="http://www.w3.org/2000/svg" xml:space="preserve" id="Layer_4_xA0_Image_00000181068625769015855000000014841186556217782159_" x="0" y="0" style="enable-background:new 0 0 72 72" version="1.1" viewBox="0 0 72 72">
  <style>
    .st1{fill:#c6c6c6}
  </style>
  <g style="opacity:.4">
    <path d="M4.1 0c-.1.3-.3.6-.4.9 1.4 1.3 1.5 2.1.2 2.8C3 2.9 4.1 1 2.3.6c-.5.5-.4 1.8-1.5 1.5C-.3 1.8.4.7.2 0h3.9zm65.3 0c0 .4.1.8 0 1-.3.4-.8 1.1-1.1 1-.7-.1-1.3-.6-1-1.5.1-.2.1-.4.2-.5h1.9zM72 64.6c-.8.1-1.6.1-2.3-.9.9-.2 1.6-.3 2.3-.5v1.4zM44.3 0c0 .6 0 1.2-.1 1.9-.2 0-.4.1-.6.1-.3-.6-.5-1.3-.8-1.9.5-.1 1-.1 1.5-.1zM7 33c.7 0 1.3-.1 1.9 0 .9.2.7 1 .6 1.5 0 .7.5 1.8-1 1.8-.7 0-1.1-.4-1.1-1.1 0-.4-.1-.8-.1-1-.7.2-1.4.5-2 .5-.3 0-.7-.9-.7-1.3 0-.3.7-.6 1.2-1 .1-.3.4-.7.7-1.3-.2-.7-.9-1.8 1.2-2.3-.2 1.6-.5 3-.7 4.2zm51.9-7.5c.6-.4 1.2-1 2-.4.7.5.9 1 .2 1.6-.6.6-.8 1.8-2.1 1.7-.1 0-.1.4-.3.6-.2.2-.5.3-.8.3-.2 0-.5-.3-.4-.5 0-.3.2-.5.4-.7.4-.5 1-1 1.3-1.6.2-.1-.2-.6-.3-1zM29.7 27c-.3-.2-.5-.3-.9-.6.3-.2.5-.5.7-.6.3-.2.7-.5 1-.6.2-.1.5-.1.8-.1 0 .3.2.6.1.9-.1.4-.3.7.2 1.2.3.3 0 1.2-.3 1.8-.1.2-1 .2-1.3.1-.6-.3-.9-.9-.4-1.6.1-.3.1-.4.1-.5zm-3.9-4.5c-1 0-1.5-.6-1.5-1.6.1-.9.9-1.7 1.8-1.5.9.2 1.4.9 1.4 1.8s-.6 1.4-1.7 1.3zM30.4 50l-.6.3c-.4 0-1.1.1-1.2-.1-.2-.5-.2-1.1-.3-1.7.4-.1.9-.2 1.3-.1.7.1 1.4.4 2.2.6.1.4.2 1 .2 1.6 0 .2-.1.4-.2 1-.5-.7-1-1.1-1.4-1.6zm38.7-15.6c.8-.3 1.4-1.6 2.3-.6.3.3.1 1.5-.2 1.8-1 .9-1.4-.4-2.1-.9-.2.1-.4.3-.7.6-.5-.7-1-1.5-1.5-2.2 1.2-.8 1.7-.5 2.2 1.3zM4.5 26.9c.7-.7 1.2-1.3 1.7-1.8.3-.2.9-.4 1.2-.3.6.2 1.1.6 1.6 1-.4.4-.8 1-1.3 1.1-.9.1-1.9 0-3.2 0zm48.7 29c.3-.2.4-.3.6-.3 1.1.1 2.1.9 3.3.3.2.4.6.8.5 1.2-.1.4-.6.9-.9.9-1.5-.2-2.7-.8-3.5-2.1zM47.3 63c.7.2 1.3.2 1.8.5.4.2 1 .7.9.9-.1.5-.5 1-.9 1.4-.1.1-.7-.2-1-.5-.3-.2-.6-.6-.9-.9-.3-.3-.6-.5-.9-.8.3-.1.7-.4 1-.6zM3.2 58.2c.1-.9.3-1.7.4-2.6 3.5 1.1 3.5 1.1 2.8 2.6-.5-.3-1-.7-1.5-1-.5.4-1 .8-1.4 1.2 0 0-.1-.1-.3-.2zm50.6-40.5c.7-.8 1.3-1.5 2-2.2.4.2.8.4.9.6.3.5.4 1 .7 1.6-.4.1-.9.3-1.3.4-.5.1-1.1 0-1.6 0-.2 0-.3-.2-.7-.4zM64.2 1.6c1.2 1.4 3.1 2 3.7 3.9-2.3-.2-4.2-2.1-3.7-3.9zM25.3 7.2c-.2-.5-.6-1.3-.9-2.1.8-.1 1.4-.2 2-.3.1-.1.1-.3.2-.4.4.8.9 1.6 1.4 2.4-1 .1-1.7.3-2.7.4zm-7.6 21.7c.1 1-.7 1.4-1.3 1.9-.4.4-1 .5-1.9.9.4-1.4 1.9-2.3.6-3.7.1-.1.2-.1.4-.2.7.4 1.5.8 2.2 1.1zm46.4-13.7c-.1.8-.1 1.5-.4 2.1-.3.5-.8.9-1.4.2-.5-.6-.8-1.1-.1-1.7.2-.2.3-.5.5-.7.3-.3.6-.5.8-.8l.6.9zM17.8 7c-1.3 0-1.6-.3-1.4-1.4.1-.3-.1-.7 0-1 .1-.3.2-.6.4-1 .3.2.7.3.9.6.3.4.4 1 .6 1.4.1.3.4.7.3.9-.2.3-.7.4-.8.5zM1.9 23.4c-.4-.1-.9-.3-1.3-.5.1-.3.3-.8.4-.8.4 0 .8.2 1.1.5.6-.4 1.2-.5 1.7.3.2.3.4 1 .3 1.2-.3.3-1 .7-1.3.6-.5-.2-.7-.8-.9-1.3zM26 50.2c-.6-.5-1-.8-1.3-1.2.2-.2.5-.6.6-.6.4.2.7.5 1 .8.2-.1.7-.4.8-.3.3.3.6.8.6 1.2-.1 1-.8 1.4-1.9 1.5.1-.6.2-1.1.2-1.4zm-5.8 8.5c-.2-.1-.7-.3-.7-.4.1-.5.2-1.1.4-1.5.1-.2.6-.3.9-.3.5 0 .9.2 1.4.4.2.1.5.3.6.5 0 .2-.2.6-.3.7-.6.2-1.4.4-2.3.6zM33 29.2c0-.7 0-1.2.1-1.6.1-.4.2-1 .4-1 .4-.1 1.2.1 1.2.3.1.7.2 1.5-.1 2.1-.3.6-1.1.6-1.6.2zm35 35.6c-.3 1-.9 1.8-1.7 1.5-.7-.2-1.1-1.1-1.7-1.8-.1-.1.1-.6.3-.6.2-.1.7 0 .7.1.3 1.1 1.1.8 1.8.7.2 0 .4.1.6.1zM36.5 54.4c.6.5 1.1.9 1.5 1.2-.6.4-1.2 1-1.9 1.3-.2.1-.8-.7-1.2-1.1.5-.5 1-.9 1.6-1.4zm8.3-18.8c-.7.4-1.2.9-1.6.9-.4-.1-1-.6-1.1-1-.1-.8.5-1.5 1.3-1.4.4 0 .8.8 1.4 1.5zm10.8 16.8c-1.7-.4-2-.8-1.7-2.2.1-.2-.1-.5-.2-.8 0-.3-.2-.7-.1-.9 0-.1.6-.3.7-.2.2.2.3.6.3.9.1.4.1.9.2 1.3.3.5.6 1.1.8 1.9zm-30.9-9.3c-.5-.5-1.1-.9-1.1-1.2.1-.5.6-.9.9-1.3.5.5.9 1 1.4 1.4-.3.3-.6.6-1.2 1.1zm16.4-26.9c-.5-.6-1.2-1.1-1.1-1.4.1-.4.7-.8 1.1-1.2.4.5.8 1 1.1 1.6.1.2-.5.6-1.1 1zm-6.5 41.5c-.8.4-1.3.8-1.8.8-.3 0-.9-.7-.8-1 .1-.5.6-.9 1-1.3.4.4.8.8 1.6 1.5zm32-38.7c.2-1.1.3-2 .6-3.2.7.4 1.3.6 1.6 1 .3.4-1 1.8-2.2 2.2zm1 41.7c.5.7.9 1.2.9 1.5-.1.5-.5.9-.8 1.4-.5-.5-1-.9-1.3-1.5-.1-.1.6-.7 1.2-1.4zM31.5 35.4c-.5.5-.9 1.2-1.2 1.2-.5 0-1.5-.1-1.3-1 .1-.5.9-.9 1.4-1.3.1-.1.6.6 1.1 1.1zm3.7 17.4c.5-.4 1-.9 1.1-.8.5.2 1.3.7 1.4 1.1.2.8-.7 1.2-1.3 1.1-.4-.1-.7-.8-1.2-1.4zm30.7-1.2c-.5-.6-1.1-1.1-1-1.2.3-.5.8-1 1.2-1.4.4.4 1 .8 1.1 1.2 0 .4-.7.8-1.3 1.4zm-51.1-31c-.6.5-1.1 1.1-1.3 1.1-.5-.3-1.1-.7-1.3-1.2-.2-.9.7-1 1.3-.9.4 0 .7.5 1.3 1zM59 65.2c-.4.3-1.1 1-1.3.9-.5-.3-.9-.9-1.3-1.4.4-.2.8-.7 1.1-.7.5 0 .9.4 1.4.6.1.3.1.5.1.6zM9.9 67.9c.6-.4 1-.9 1.2-.9.5.1.9.6 1.3 1-.5.5-1 .9-1.4 1.4-.3-.5-.6-.9-1.1-1.5zm14.7-22c-.6.5-1 1-1.2.9-.5-.3-1-.8-1.4-1.1.4-.4.8-1.1 1.2-1.1.4.1.8.7 1.4 1.3zm1.6 24.7c.5-.5.8-1.1 1.2-1.1.5 0 1.5.1 1.3.9-.1.5-.9.9-1.4 1.3-.1.1-.6-.6-1.1-1.1zm19.3-19.1c-.6-.6-1.3-1-1.3-1.4 0-.4.5-1.1.9-1.2.9-.2 1.1.7 1.2 1.4.1.2-.3.6-.8 1.2zm-.2-45.4c-.6.6-1 .9-1.3 1.3-.4-.5-.8-.9-1.2-1.4.4-.3.9-.8 1.4-.9.1-.1.5.5 1.1 1zm2.1 10.7c-.6.7-1 1.1-1.5 1.6-.4-.5-.7-1-1.1-1.6.4-.3.8-.7 1.2-.8.4 0 .8.5 1.4.8zM19.7 15c.3.7.7 1.2.6 1.4-.2.5-.7.9-1.1 1.3-.4-.4-1-.9-1-1.3.1-.5.8-.8 1.5-1.4zm23.8 15.6c-.6-.6-1.2-1.1-1.1-1.2.2-.5.7-1.2 1.2-1.3.9-.3 1 .6 1 1.2-.1.3-.6.7-1.1 1.3zm26.7-.8c-.4.2-.9.6-1.2.5-.5-.1-.9-.5-1.3-.8.5-.4.9-1 1.5-1.3.2-.1.7.6 1.1 1 0 .2 0 .4-.1.6zM34.4 6.2l1.4 1.4-1.2 1.2c-.4-.5-.8-.9-1.1-1.4 0-.2.5-.6.9-1.2zm-26.8.1c.2.3.7.7.6 1.1-.1.5-.5.9-.8 1.4-.4-.5-1-.9-1.3-1.4-.1-.2.6-.8.9-1.2.2 0 .4 0 .6.1zm1.7 41.4L8 49c-.4-.5-1.1-.8-1.2-1.4-.2-.8.6-1 1.2-.9.3.1.7.6 1.3 1zm10.9 6.8c-1-.1-1.5-.6-1.4-1.2.1-.4.8-.8 1.2-1.1.4.5.8 1 1 1.5.1.1-.5.5-.8.8zM8.7 39.8c-.5.4-1 .9-1.5 1-.3.1-.8-.7-1-1.1-.1-.2.5-.9.7-.9.6 0 1.1.3 1.7.5 0 .2.1.3.1.5zm62.1.3c-.7.4-1 .7-1.4.8-.7.2-1.3-.2-1.1-.9.1-.5.8-1 1.2-1.4.3.4.6.8 1.3 1.5zM48.5 28.4c-.6.5-1 1.2-1.3 1.1-.5-.1-.9-.7-1.3-1.1.5-.4.9-.9 1.5-1.2.1.1.6.7 1.1 1.2zm-.1 9.4c.5.7 1.1 1.2 1 1.5-.2.5-.8 1-1.2 1.4-.3-.5-.8-1-.9-1.5 0-.4.6-.8 1.1-1.4zM22 12.5c.6-.5 1.1-1 1.3-1 .5.1 1 .6 1.5.9-.5.4-.9.9-1.5 1.1-.2.2-.7-.5-1.3-1zm8 51.1c.7.6 1.1 1 1.5 1.3-.5.4-.8 1.1-1.4 1.3-.7.2-1.1-.4-1-1.1.2-.4.5-.8.9-1.5zM29.1 31c-.6.5-1 1-1.3 1-.4 0-.8-.6-1.2-.9l1.4-1.4c.3.4.6.7 1.1 1.3zM55.5 7.2c-.3-.7-.7-1.2-.6-1.6.1-.4.6-.7 1-1.1.4.5.8 1 1.3 1.5-.5.3-1 .6-1.7 1.2zM24.9 30.7c.5.6 1 1.1.9 1.3-.3.5-.7 1.2-1.2 1.3-.8.2-1.1-.6-1-1.2.2-.5.7-.8 1.3-1.4zm31.4 7c.3.3.9.8.8.9-.3.5-.8.9-1.2 1.4-.4-.4-1-.8-1-1.3s.4-1.1 1.4-1zm-43.8 26c-.8.5-1.3.9-1.7 1-.3 0-.9-.6-.9-.8.1-.6.5-1.1.8-1.6.5.4 1 .7 1.8 1.4zM38.3 14c-.4-.5-1-.9-.9-1.1.2-.5.6-1.3 1.1-1.4.9-.3 1.2.7 1.1 1.2-.1.4-.8.8-1.3 1.3zm26.3 6.3c-.6-.6-1.2-1.2-1.2-1.3.3-.5.8-1.1 1.3-1.3.8-.2 1 .6.9 1.2 0 .5-.5.8-1 1.4zm-46.5 28c-.6.5-1.1 1.2-1.4 1.1-.5-.2-.9-.7-1.4-1.1.5-.3.9-.8 1.5-.9.3 0 .7.5 1.3.9zm45.2 3.9c.9.1 1.1.5 1.1 1.2 0 .6-.2 1.3-.8 1.1-.6-.1-1-.8-1.5-1.2.4-.4.8-.8 1.2-1.1zm1.5-20.6c.6-.7 1.2-1.4 1.8-2.2.2 0 .3.1.5.1 0 .6.2 1.3-.1 1.6-.5.5-1.3.7-1.9 1-.1-.1-.2-.3-.3-.5zM50 51.1c-.4.6-.8 1.3-1.3 1.7-.3.2-1-.2-1.5-.3 0-.2-.1-.3-.1-.5.8-.5 1.7-.9 2.5-1.4.1.1.2.3.4.5zM7.7 42.4c.9-.3 1.8-.6 2.6-.9.1.1.2.3.3.4-.5.5-.8 1.3-1.4 1.6-.4.2-1.1-.3-1.6-.4.1-.3.1-.5.1-.7zm55.4-11.3c-.4.3-.9 1-1.2.9-.7-.1-1.3-.6-1.9-1 .1-.2.1-.4.2-.6.9.1 1.8.1 2.7.2 0 .2.1.3.2.5zm.3 26.9c-.4-.9-.7-1.6-1-2.3-.1-.2 0-.5.1-.6.1-.1.4-.1.6 0 1.1.4 1.3 1.4.3 2.9zM19.7 45c.4.4 1.2.7 1.2 1.1.1.6-.3 1.3-.4 2H20c-.2-.9-.5-1.8-.7-2.7.1-.2.3-.3.4-.4zM.2 56.5c1.7.2 2.1.9 1.4 1.8-.2.2-.6.4-.9.4-.2 0-.4-.5-.4-.8-.1-.3-.1-.8-.1-1.4zm35-14c.8.5 1.6.9 2.4 1.4 0 .2-.1.4-.1.6-.7 0-1.4.1-2-.2-.4-.2-.5-.9-.7-1.4l.4-.4zM21.4 7.4c.8-.1 1.7-.3 2.6-.4.1.1.2.3.2.4-.4.4-.7 1.1-1.1 1.1-.6.1-1.3-.3-1.9-.5.1-.2.1-.4.2-.6zm8.4 4.3c0 .7.1 1.4-.2 1.9-.2.4-.9.4-1.4.6-.1-.1-.2-.2-.3-.4.4-.8.9-1.6 1.3-2.4.2.2.4.3.6.3zm15.8 7.6c.8-.5 1.6-1 2.3-1.5.1.1.3.2.4.2-.2.5-.2 1.2-.5 1.4-.6.3-1.3.3-2 .4 0-.1-.1-.3-.2-.5zM69.5 8.6c-.4.3-.8.9-1.2.9-.6-.1-1.2-.5-1.8-.8 0-.1.1-.3.1-.4h2.7c0 .1.1.2.2.3zM12.9 31.1c-.7-.5-1.4-1.1-2.2-1.6.1-.2.1-.3.2-.5.6.1 1.4.1 1.9.4.4.2.4 1 .6 1.5-.2.1-.4.2-.5.2zm-.1 1.3c.8.2 1.7.4 2.5.6 0 .2 0 .3.1.5-.5.2-1 .6-1.5.5-.5-.1-1-.7-1.5-1.1.2-.2.3-.4.4-.5zm39.9-2.2c.3.5.8 1 .9 1.6.1.4-.4.9-.7 1.4-.2 0-.3-.1-.5-.1-.1-.9-.2-1.7-.3-2.6l.6-.3zm-20-22.4c-.5.1-1.1.4-1.4.3-.5-.2-.9-.8-1.3-1.3.1-.2.2-.3.3-.5.8.3 1.6.7 2.4 1v.5zm6.7 18.9c-.2.1-.4.4-.6.4-.3-.1-.6-.3-.8-.5-.2-.3-.4-.7-.5-1-.1-.2-.2-.5-.1-.8 0-.2.4-.3.6-.3.2 0 .7.3.6.4-.3.7.4 1 .7 1.4 0 0 .1.2.1.4zM5 17.8c-.6-.7-1.1-1.3-1.7-2 .8-.6 1.4-.2 1.9.3s.3 1.1-.2 1.7zm46.9-6.9c-.1.8-.3 1.7-.4 2.5-.1 0-.3.1-.4.1-.2-.4-.7-.9-.6-1.3.1-.6.6-1 .9-1.6.1.1.3.2.5.3zM35.2 31.5c-.5.7-.9 1.4-1.4 2.2-.2 0-.3-.1-.5-.1.1-.6 0-1.3.3-1.8.2-.3.8-.4 1.3-.6.1 0 .2.2.3.3zM29.8 7.6c-.8.6-1.5 1.1-2.4 1.8-.2-1.9.6-2.4 2.4-1.8zM46.1 24l-2.4-.3c0-.2-.1-.3-.1-.5.5-.2 1.1-.5 1.6-.4.4 0 .7.5 1.1.8-.1.1-.2.2-.2.4zM15.2 66.7c.9-1.6 1.7-1.7 2.8-.4-.9.2-1.8.3-2.8.4zm7.4-4.7c1.3-1.4 2.1-1.3 2.8.2-1 0-1.8-.1-2.8-.2zM3.9 71.7H1.6c.2-.9.8-1.3 1.6-1.1.4.1.6.6.9.9l-.2.2zM51 49.1c0-.4-.1-1 .1-1.2.3-.4.9-.6 1.4-.9.1.1.2.2.3.4-.4.6-.9 1.3-1.3 1.9-.1-.2-.3-.2-.5-.2zM40.4 66.8c-.6.5-1.1 1.1-1.7 1.6-.1-.1-.3-.1-.4-.2.1-.5.2-1 .5-1.3.3-.3.9-.4 1.4-.5.1.1.1.3.2.4zm23.3 3.7c1.2-.3 1.8 0 2.1 1.2-1.2.3-1.8-.1-2.1-1.2zM50.3 26.6c-.9-1.4-.5-2.2 1.2-2.4-.4.8-.8 1.5-1.2 2.4zm9.9 32.3c.5-1.6 1.4-1.7 2.6-.4-.9.2-1.6.3-2.6.4zM45.7 32c.3.5.8.9.7 1.1-.1.3-.6.6-.9.8-.2-.3-.7-.6-.7-.9.1-.2.5-.5.9-1zm-.5 23.5c-.8-1.6-.6-2.2 1.1-2.7-.4 1-.7 1.8-1.1 2.7zm-8.9-15.3c-.3-.4-.6-.7-.6-1 0-.2.4-.6.7-.6.2 0 .6.4.6.7 0 .2-.4.5-.7.9zm2.8-.6c-.4.3-.7.7-.9.7-.2 0-.6-.4-.7-.6 0-.2.4-.6.6-.6.2-.1.5.2 1 .5zM5.3 54.2c.4-.2.7-.6.9-.6.3.1.4.4.7.7-.2.2-.5.6-.7.6-.2 0-.5-.3-.9-.7zM55.4 1.9c.3.5.6.8.5 1 0 .2-.4.6-.6.6-.2 0-.6-.4-.6-.6 0-.3.3-.6.7-1zm-37.6 40c-.4-.4-.7-.7-.7-.8.1-.3.4-.6.7-.8.2.2.5.4.6.6 0 .3-.3.6-.6 1zm4.3-24.1c-.3-.4-.7-.6-.7-.9 0-.2.4-.6.7-.6.2 0 .6.3.6.6 0 .2-.3.5-.6.9zm1.4 9.5c-.2-.4-.6-.7-.5-.8.2-.3.5-.5.7-.8.2.3.5.5.5.8.1.2-.3.4-.7.8zm25 33.2c.3.4.7.7.7.9 0 .3-.4.5-.6.7-.2-.2-.6-.4-.7-.7-.1-.2.3-.5.6-.9zm-8.6-13.8c.3.5.6.7.7 1 0 .1-.4.5-.6.5-.3-.1-.6-.3-.7-.6-.1-.1.3-.4.6-.9zm-21.4 7.9c-.4.3-.7.6-1 .6-.2 0-.6-.4-.5-.6.1-.3.3-.7.6-.7.2 0 .5.3.9.7zm36.5-.7c-.5.3-.8.6-1 .6-.2 0-.4-.4-.6-.7.2-.2.5-.6.7-.6.2 0 .5.3.9.7zm-1.1-39.4c-.4.4-.6.7-.9.7-.2 0-.6-.4-.6-.6 0-.2.3-.7.5-.7.3 0 .6.4 1 .6zM7.7 12.4c-.5.3-.7.6-.9.5-.3-.1-.5-.4-.8-.6.2-.2.5-.5.7-.5.3 0 .5.3 1 .6zm-4.9 7.3c-.3-.4-.6-.7-.6-.8.1-.3.4-.5.6-.8.2.2.6.4.6.7.1.2-.3.5-.6.9zm28.9 33.9c-.3-.5-.6-.8-.6-1 0-.2.4-.6.6-.6.2 0 .7.4.6.5.1.3-.2.6-.6 1.1z" class="st1"/>
    <path d="M17.7 29c-.1-.1-.2-.3-.1-.4.1-.3.2-.6.3-1 .3.1.8.3.8.4 0 .3-.2.7-.4 1-.1 0-.4-.1-.6 0 0-.1 0 0 0 0zm24.4 2.2c-.4.3-.7.7-.9.7-.2 0-.5-.4-.6-.7 0-.1.3-.6.5-.5.3 0 .6.3 1 .5zm-3.4 14c-.3-.4-.7-.7-.7-.9 0-.3.4-.5.6-.7.2.2.5.4.6.7.1.2-.2.4-.5.9zm25.5-7.5c-.5.3-.8.6-1 .6-.3-.1-.4-.4-.6-.7.3-.2.5-.5.8-.5.2-.1.4.2.8.6zM30.3 21.3c-.4.3-.7.6-.9.6-.3 0-.5-.4-.7-.7.2-.2.5-.6.7-.6.3 0 .5.4.9.7zm38.8 2.5c-.2-.4-.5-.7-.5-.9.1-.3.4-.5.6-.7.2.2.6.5.6.7 0 .3-.4.5-.7.9zm-51 19.7c.3.4.7.7.7.9 0 .2-.4.5-.7.6-.2 0-.6-.3-.6-.5 0-.3.3-.6.6-1zM15.7 7.6c-.4.3-.7.7-.9.7-.3 0-.5-.4-.7-.6.2-.2.5-.5.8-.6.2-.1.4.2.8.5zM32 67c.3.4.7.7.6.9 0 .2-.4.6-.7.6-.2 0-.6-.4-.6-.6.1-.2.4-.5.7-.9zm23.5-21.6c-.3-.4-.6-.6-.6-.9 0-.2.3-.5.5-.7.3.2.7.4.8.7 0 .2-.4.5-.7.9zm12.1-4.8c.3.5.6.8.6 1.1 0 .2-.4.4-.6.7-.2-.2-.5-.4-.5-.6-.1-.4.2-.7.5-1.2zm-5.4-2.4c.4.4.7.6.7.9 0 .2-.4.6-.6.6-.2 0-.6-.4-.6-.6-.1-.2.2-.4.5-.9zM15.3 51.6c.2.5.5.8.4 1 0 .2-.4.5-.6.5-.3-.1-.5-.4-.7-.6l.9-.9zM18.4 19c-.4.3-.7.6-.9.6-.3-.1-.5-.5-.8-.7.2-.2.5-.5.7-.5.3.1.6.3 1 .6zm10.8 18.5c-.4.2-.7.5-.9.5-.3 0-.5-.3-.8-.5.2-.2.4-.6.7-.6.3-.1.6.3 1 .6zm29.9-13.6c-.4.4-.7.7-.9.7-.2 0-.5-.4-.7-.6.2-.2.4-.6.6-.6.2 0 .5.3 1 .5z" class="st1"/>
  </g>
</svg>
